<?xml version="1.0" encoding="UTF-8" standalone="no"?>
<!-- ClipArt created by Arvin61r58 (http://openclipart.org/user-detail/Arvin61r58) -->

<svg
   xmlns:dc="http://purl.org/dc/elements/1.1/"
   xmlns:cc="http://creativecommons.org/ns#"
   xmlns:rdf="http://www.w3.org/1999/02/22-rdf-syntax-ns#"
   xmlns:svg="http://www.w3.org/2000/svg"
   xmlns="http://www.w3.org/2000/svg"
   xmlns:sodipodi="http://sodipodi.sourceforge.net/DTD/sodipodi-0.dtd"
   xmlns:inkscape="http://www.inkscape.org/namespaces/inkscape"
   id="svg3028"
   viewBox="0 0 779.99997 780.50218"
   version="1.1"
   inkscape:version="0.91 r13725"
   sodipodi:docname="Digital_Survival_Logo.svg"
   inkscape:export-filename="C:\Users\mmarchese\Pictures\digital_survival_compass.png"
   inkscape:export-xdpi="100"
   inkscape:export-ydpi="100"
   width="780"
   height="780.5022">
  <defs
     id="defs35" />
  <sodipodi:namedview
     pagecolor="#ffffff"
     bordercolor="#666666"
     borderopacity="1"
     objecttolerance="10"
     gridtolerance="10"
     guidetolerance="10"
     inkscape:pageopacity="0"
     inkscape:pageshadow="2"
     inkscape:window-width="1440"
     inkscape:window-height="847"
     id="namedview33"
     showgrid="true"
     inkscape:zoom="0.64336731"
     inkscape:cx="374.16379"
     inkscape:cy="310.1344"
     inkscape:window-x="1912"
     inkscape:window-y="-8"
     inkscape:window-maximized="1"
     inkscape:current-layer="layer5"
     showborder="true"
     fit-margin-bottom="-0.2"
     fit-margin-top="0"
     fit-margin-left="0"
     fit-margin-right="0"
     borderlayer="false"
     inkscape:showpageshadow="false">
    <inkscape:grid
       type="xygrid"
       id="grid4218"
       empspacing="4"
       originx="33.288527"
       originy="23.207657" />
  </sodipodi:namedview>
  <title
     id="title3224">Digial Survival Logo</title>
  <metadata
     id="metadata31">
    <rdf:RDF>
      <cc:Work>
        <dc:format>image/svg+xml</dc:format>
        <dc:type
           rdf:resource="http://purl.org/dc/dcmitype/StillImage" />
        <cc:license
           rdf:resource="" />
        <dc:publisher>
          <cc:Agent
             rdf:about="http://openclipart.org/">
            <dc:title></dc:title>
          </cc:Agent>
        </dc:publisher>
        <dc:title>Digial Survival Logo</dc:title>
        <dc:date>2015-12-15</dc:date>
        <dc:description>Compass Rose/Symbol, semi-freehand</dc:description>
        <dc:source></dc:source>
        <dc:creator>
          <cc:Agent>
            <dc:title>Arvin61r58, Maffblaster</dc:title>
          </cc:Agent>
        </dc:creator>
        <dc:subject>
          <rdf:Bag>
            <rdf:li>chart</rdf:li>
            <rdf:li>compass</rdf:li>
            <rdf:li>compass rose</rdf:li>
            <rdf:li>compass symbol</rdf:li>
            <rdf:li>freehand</rdf:li>
            <rdf:li>map</rdf:li>
            <rdf:li>navigation</rdf:li>
            <rdf:li>needle</rdf:li>
            <rdf:li>symbol</rdf:li>
            <rdf:li>symbols</rdf:li>
            <rdf:li>travel</rdf:li>
          </rdf:Bag>
        </dc:subject>
      </cc:Work>
    </rdf:RDF>
  </metadata>
  <ellipse
     style="opacity:0;fill:#e8a8a5;fill-opacity:1;stroke:#e8a8a5;stroke-opacity:1"
     id="path4191"
     cx="412.50537"
     cy="321.69223"
     rx="18.684219"
     ry="40.116116" />
  <text
     xml:space="preserve"
     style="font-style:normal;font-weight:normal;font-size:40px;line-height:125%;font-family:sans-serif;letter-spacing:0px;word-spacing:0px;fill:#000000;fill-opacity:1;stroke:none;stroke-width:1px;stroke-linecap:butt;stroke-linejoin:miter;stroke-opacity:1"
     x="102.53004"
     y="65.978523"
     id="text4193"
     sodipodi:linespacing="125%"><tspan
       sodipodi:role="line"
       x="102.53004"
       y="65.978523"
       id="tspan4197" /></text>
  <g
     inkscape:groupmode="layer"
     id="layer4"
     inkscape:label="Compass body"
     style="display:inline"
     transform="translate(33.288528,23.654616)">
    <g
       id="g3226"
       transform="matrix(0.99999766,0.0021642,-0.0021642,0.99999766,-59.75808,-47.62289)">
      <path
         inkscape:connector-curvature="0"
         d="m 345.11,375.56 c -9.9306,9.7039 -16.902,15.979 -17.304,15.576 -0.3706,-0.37069 -2.7924,-5.7331 -5.3815,-11.916 -2.5892,-6.1834 -6.2157,-14.826 -8.0589,-19.205 -1.8432,-4.3793 -4.7069,-11.698 -6.3637,-16.264 -7.682,-21.169 -9.2783,-25.37 -9.5411,-25.107 -0.1551,0.15513 -1.3065,-2.3528 -2.5586,-5.5732 -1.2521,-3.2204 -2.8104,-7.2305 -3.463,-8.9114 -0.6526,-1.6809 -2.0521,-5.0543 -3.11,-7.4966 -2.2498,-5.1937 -2.7515,-8.8251 -1.2677,-9.1754 1.0026,-0.23669 5.255,1.0085 15.735,4.6075 6.9359,2.3819 32.66,11.418 35.06,12.316 1.1321,0.42345 6.4446,2.1113 11.806,3.7508 19.828,6.0638 35.374,11.295 39.875,13.418 5.764,2.7184 6.8886,1.0541 -17.987,26.62 -5.9456,6.1105 -18.294,18.423 -27.44,27.361 z m 13.672,-18.501 c 0.8205,-1.0017 -0.4188,-2.4016 -8.7878,-9.9264 -18.209,-16.372 -52.97,-48.306 -56.941,-52.311 -3.3272,-3.3549 -4.1558,-2.683 -1.6059,1.3022 1.884,2.9445 6.826,15.12 14.243,35.09 4.1346,11.132 9.6096,24.891 16.504,41.478 l 6.0212,14.485 9.3375,-8.6304 c 7.9819,-7.3774 17.866,-17.383 21.229,-21.488 z m 17.572,-17.968 c -10.963,-1.6882 -15.323,-1.4881 -11.541,0.52969 0.8876,0.47358 0.1256,0.44011 -1.6934,-0.0744 -1.8189,-0.5145 -5.9624,-0.98484 -9.2078,-1.0452 -3.2454,-0.0604 -5.6672,-0.34327 -5.3817,-0.62868 0.2854,-0.28542 -0.9742,-0.99414 -2.7991,-1.575 -4.2834,-1.3634 -4.318,-2.6786 -0.045,-1.714 6.8102,1.5375 16.25,2.4174 16.458,1.5342 0.1193,-0.50542 -2.703,-1.3049 -6.2718,-1.7766 -10.233,-1.3526 -19.116,-3.1386 -19.116,-3.8433 0,-0.35516 2.3231,-0.26524 5.1625,0.19981 2.8393,0.46505 6.7186,0.88042 8.6205,0.92304 1.9019,0.0426 6.5425,0.49322 10.312,1.0013 3.7699,0.5081 9.0996,1.007 11.844,1.1087 3.2214,0.11938 5.1132,0.70931 5.3387,1.6648 0.4987,2.1122 1.9068,2.1789 3.9009,0.18482 2.11,-2.11 1.6056,-2.6539 -2.799,-3.0182 -13.459,-1.1132 -15.163,-1.4311 -15.842,-2.9557 -0.5533,-1.2424 0.7102,-1.312 5.3989,-0.29762 9.5687,2.0702 17.977,1.5369 20.835,-1.3214 1.3106,-1.3105 2.3828,-2.7609 2.3828,-3.2231 0,-0.46222 -2.2932,-1.5101 -5.096,-2.3286 -6.4306,-1.878 -8.6951,-1.9602 -5.6713,-0.20582 2.1235,1.2321 2.1148,1.2846 -0.1721,1.0322 -1.3252,-0.14627 -2.8891,-0.49156 -3.4753,-0.7673 -0.5863,-0.27575 -1.083,-0.12994 -1.1038,0.32402 -0.021,0.45396 1.9052,1.1962 4.2801,1.6493 2.3749,0.45317 4.2052,1.3018 4.0674,1.8858 -0.1379,0.58399 -0.7824,0.93629 -1.4321,0.7829 -0.6498,-0.1534 -1.2808,0.14192 -1.4023,0.65627 -0.2554,1.0822 -5.5584,1.1712 -13.401,0.22498 -5.6384,-0.68029 -7.2964,-1.4086 -6.0481,-2.6569 0.8221,-0.82212 -14.917,-3.4916 -18.269,-3.0985 -2.0764,0.24352 -2.0543,0.29193 0.3247,0.70972 1.4042,0.24661 5.6826,0.87315 9.5074,1.3923 7.8424,1.0645 7.8819,1.0801 6.4255,2.5364 -0.5833,0.58336 -1.4655,0.65574 -1.9604,0.16085 -0.4949,-0.49489 -3.6432,-1.0976 -6.9963,-1.3394 -3.353,-0.24176 -6.414,-0.75719 -6.8022,-1.1454 -0.3882,-0.3882 -0.8274,-0.19097 -0.9759,0.4383 -0.3363,1.4246 -0.9827,0.82511 -1.7138,-1.5893 -0.4187,-1.3827 -1.7137,-1.9393 -5.1277,-2.2039 -3.7951,-0.2941 -4.0136,-0.2213 -1.2915,0.43045 2.8881,0.69146 6.5339,2.8405 5.8979,3.4765 -0.127,0.12702 -2.4073,-0.11689 -5.0673,-0.54203 -2.6599,-0.42513 -4.8363,-0.3701 -4.8363,0.1223 0,0.49238 -0.3712,0.52402 -0.8249,0.0703 -0.4538,-0.45373 -1.1332,-0.51675 -1.5099,-0.14005 -0.3767,0.3767 -0.1472,0.94271 0.51,1.2578 0.6571,0.31508 5.4182,4.5372 10.58,9.3825 5.1618,4.8453 9.8964,8.7021 10.521,8.5706 0.6248,-0.13146 3.2121,0.23046 5.7496,0.80429 6.3924,1.4456 13.406,1.4435 14.854,-0.004 0.8031,-0.80307 -1.9769,-1.2455 -8.2352,-1.3107 -9.2879,-0.0967 -13.251,-0.75547 -14.986,-2.4912 -1.3587,-1.3587 5.7678,-1.2686 10.104,0.12765 3.2728,1.0537 5.9017,0.90345 7.9532,-0.45467 1.4911,-0.98711 3.5389,-0.7038 4.9239,0.68122 2.0582,2.0582 3.0742,2.0264 4.9213,-0.154 0.9014,-1.064 0.9896,-1.8397 0.2227,-1.9578 z m -21.69,-9.105 c -4.4325,-0.43778 -10.301,-0.87362 -13.041,-0.96853 -2.7401,-0.0949 -5.6887,-0.48735 -6.5526,-0.87206 -3.2404,-1.4432 -0.039,-1.9293 8.5783,-1.3024 4.8942,0.35602 9.2433,0.51473 9.6646,0.35268 0.4214,-0.16204 1.069,0.008 1.4391,0.37844 0.3702,0.37017 2.0027,0.95 3.6278,1.2885 2.2302,0.46455 2.8717,0.24438 2.616,-0.89793 -0.1864,-0.83236 -0.021,-1.1952 0.3683,-0.80627 0.3889,0.3889 0.8537,1.3633 1.0329,2.1653 0.2276,1.0192 -2.1007,1.2186 -7.7334,0.66226 z m 6.743,19.778 c -2.669,-0.0417 -4.8415,0.0626 -4.8279,0.23168 0.014,0.16911 1.2166,1.1841 2.673,2.2556 2.3277,1.7124 2.9119,1.6844 4.8279,-0.23167 l 2.1798,-2.1798 -4.8528,-0.0758 z m 6.3431,-2.8288 c -0.6293,-0.14855 -1.4623,0.0481 -1.8512,0.43701 -0.3889,0.38891 -0.1923,0.82865 0.437,0.9772 0.6293,0.14855 1.4623,-0.0481 1.8512,-0.43701 0.3889,-0.38891 0.1923,-0.82865 -0.437,-0.9772 z m -10.539,-0.68546 c -3.823,-1.2168 -5.8747,-0.87856 -4.2889,0.70716 0.6412,0.6412 2.479,1.0471 4.084,0.90209 3.8696,-0.34971 3.881,-0.4392 0.2049,-1.6092 z m 19.414,-20.875 c -3.8398,-0.64577 -7.3106,-0.32752 -4.5694,0.41897 1.9064,0.51917 7.5018,0.84847 7.8861,0.46412 0.1532,-0.15315 -1.3394,-0.55053 -3.3167,-0.88309 z m -6.1392,-8.3993 c -4.8107,-1.6063 -9.0941,-2.7867 -9.5186,-2.623 -0.4246,0.16366 -0.9018,-0.25287 -1.0607,-0.92561 -0.1638,-0.69416 -0.4152,-0.68727 -0.5812,0.0159 -0.1695,0.71783 -1.0386,0.68432 -2.066,-0.0797 -0.9754,-0.72532 -2.4069,-0.99768 -3.1812,-0.60525 -1.1523,0.58398 -1.0554,0.7473 0.5339,0.89969 1.0679,0.1024 1.9417,0.58761 1.9417,1.0782 0,0.49063 2.0152,1.1633 4.4783,1.4948 2.4631,0.33153 4.4763,1.0403 4.4739,1.575 0,1.0751 -3.3388,0.86544 -16.794,-1.0559 -11.744,-1.6771 -16.418,-3.0333 -17.46,-5.067 -0.712,-1.3891 -0.7988,-1.3616 -0.5483,0.17333 0.1887,1.1562 -0.018,1.5156 -0.5656,0.982 -1.2794,-1.2473 -9.8283,-2.6657 -10.364,-1.7196 -0.2539,0.44831 -0.9389,0.33781 -1.5223,-0.24555 -0.5833,-0.58336 -1.5379,-0.58336 -2.1213,0 -0.7852,0.78519 -0.2656,1.8267 2.0004,4.01 1.6835,1.6222 2.8224,2.3885 2.5309,1.703 -0.2916,-0.68553 0.063,-1.3948 0.787,-1.5762 0.7244,-0.18139 0.3421,-0.43147 -0.8497,-0.55573 -1.8457,-0.19244 -2.0161,-0.37667 -1.1499,-1.2429 0.5594,-0.55934 5.9454,0.21999 11.969,1.7319 10.243,2.5709 22.867,4.7633 30.5,5.297 1.8175,0.12707 3.5083,0.41138 3.7574,0.6318 0.8137,0.72007 6.9915,1.3473 7.5701,0.76861 0.3103,-0.31029 -0.4128,-0.85997 -1.6069,-1.2215 -3.6674,-1.1104 -1.2926,-1.8036 3.0205,-0.88163 6.5475,1.3996 5.1844,0.56285 -4.1733,-2.5618 z m -3.1549,8.4582 c -1.6093,-0.33522 -3.0673,-0.46821 -3.24,-0.29553 -0.3465,0.34654 1.6013,0.96066 4.0321,1.2713 2.7918,0.35674 2.2193,-0.34848 -0.7921,-0.97573 z m -13.471,-4.584 c -1.3915,0.005 -1.3915,0.16764 0,0.79168 0.9629,0.43182 1.7507,0.42888 1.7507,-0.007 0,-0.43543 -0.7878,-0.78873 -1.7507,-0.78514 z m -6.9005,-1.1262 c -5.0468,-0.84876 -5.289,-0.19923 -0.3119,0.83641 2.2073,0.45932 4.0134,0.5991 4.0134,0.31063 0,-0.28848 -1.6657,-0.80464 -3.7015,-1.147 z m 1.9115,-5.5895 c -0.8304,-0.36984 -1.5098,-0.36913 -1.5098,0.002 0,0.37071 0.5491,0.80364 1.2202,0.96207 1.8254,0.43092 2.0138,-0.19577 0.2896,-0.96364 z m 4.8595,-3.1378 c -0.1266,-0.12666 -1.8512,-0.15222 -3.8323,-0.0568 l -3.602,0.17351 3.2798,0.56489 c 2.7854,0.47974 4.9592,0.12309 4.1545,-0.68162 z m -16.66,7.34 c -2.3094,-0.7491 -4.8491,-1.2076 -5.6439,-1.019 -0.8897,0.21123 -0.343,0.57857 1.4229,0.95605 1.5773,0.33715 3.9627,0.95005 5.3008,1.362 1.3382,0.41193 2.5874,0.59459 2.7761,0.40592 0.1887,-0.18867 -1.5465,-0.95593 -3.8559,-1.705 z m 4.7122,-7.3259 -3.9363,0.0901 3.9363,0.7413 c 2.165,0.40772 3.9364,0.36719 3.9363,-0.0901 0,-0.45726 -1.7713,-0.79085 -3.9363,-0.74131 z m 1.8042,-2.822 c -1.4152,-0.52927 -2.9205,-0.61627 -3.345,-0.19334 -0.4244,0.423 -1.8524,-0.16943 -3.1731,-1.3164 -1.3208,-1.147 -2.8682,-1.9847 -3.4388,-1.8617 -0.5707,0.12302 -1.9382,-0.24876 -3.039,-0.8262 -1.9255,-1.0101 -5.1423,-0.37074 -5.1423,1.022 0,0.37018 0.9545,0.67306 2.1213,0.67306 1.1667,0 2.1213,-0.23624 2.1213,-0.52497 0,-0.28874 1.8015,0.19828 4.0032,1.0822 l 4.0033,1.6072 -4.2732,-0.1455 c -4.9438,-0.16834 -6.3717,1.8579 -1.9573,2.7774 1.5757,0.32822 3.2433,0.21848 3.7056,-0.24386 0.4624,-0.46235 3.0338,-0.80637 5.7143,-0.76449 5.8046,0.0907 6.0576,-0.0298 2.6997,-1.2856 z m -14.992,10.697 c -0.6402,-1.4376 -5.3812,-2.3443 -6.4852,-1.2403 -0.2901,0.29014 0.6178,1.6096 2.0175,2.9322 1.9569,1.8489 2.8446,2.1051 3.8413,1.1085 0.713,-0.71295 0.9948,-1.9731 0.6264,-2.8004 z m -3.0109,-10.749 c -1.3915,0.005 -1.3915,0.16764 0,0.79167 0.9629,0.43183 1.7508,0.42889 1.7508,-0.007 0,-0.43542 -0.7879,-0.78872 -1.7508,-0.78513 z m -2.2814,-2.5269 c -0.7175,-0.31956 -1.3956,-0.49001 -1.5068,-0.37877 -0.1113,0.11123 0.059,0.78931 0.3787,1.5068 0.3196,0.71754 0.9977,0.88801 1.5069,0.37878 0.5092,-0.50921 0.3388,-1.1873 -0.3788,-1.5068 z m -6.1748,2.454 c -4.6423,-0.0725 -6.8535,-0.853 -4.2536,-1.5014 1.0893,-0.27168 0.9943,-0.40145 -0.4132,-0.56403 -1.0054,-0.11615 -3.7679,-2.2422 -6.1388,-4.7246 -3.0805,-3.2254 -4.6924,-4.3432 -5.6481,-3.9171 -1.085,0.48374 -0.3523,1.4166 3.882,4.9421 2.8707,2.3902 6.1769,5.2975 7.3471,6.4607 1.6877,1.6777 2.8377,1.8772 5.5609,0.96526 1.8883,-0.63232 3.6182,-1.2486 3.8444,-1.3695 0.2261,-0.12091 -1.6552,-0.25208 -4.1807,-0.29154 z m 0.3366,-8.0916 c -6.1649,-1.0368 -8.1923,-0.16489 -2.2295,0.95885 3.1548,0.59455 5.7359,0.75471 5.7359,0.35593 0,-0.39879 -1.5779,-0.99045 -3.5064,-1.3148 z m -16.33,-6.6 c -0.9812,-0.57441 -2.0763,-0.75211 -2.4336,-0.39487 -0.3588,0.35883 0.3222,0.94371 1.5216,1.3069 1.1941,0.36155 2.2892,0.53923 2.4336,0.39488 0.1443,-0.14436 -0.5404,-0.73245 -1.5216,-1.3069 z m -5.4739,-1.2264 c -0.6088,0.30438 -1.3685,-0.034 -1.6883,-0.75208 -0.3198,-0.71801 -1.1329,-1.1753 -1.807,-1.0162 -0.7798,0.1841 -0.521,0.77335 0.7116,1.6202 1.0655,0.73199 2.7779,2.0812 3.8054,2.9983 l 1.8682,1.6674 -0.8916,-2.5355 c -0.6797,-1.933 -1.1545,-2.404 -1.9983,-1.9821 z"
         id="path3128" />
      <path
         inkscape:connector-curvature="0"
         d="m 498.94,341.52 c -9.7039,-9.9306 -15.979,-16.902 -15.576,-17.304 0.3707,-0.37069 5.7331,-2.7924 11.916,-5.3816 6.1833,-2.5892 14.826,-6.2157 19.205,-8.0589 4.3793,-1.8432 11.698,-4.7068 16.264,-6.3637 21.169,-7.682 25.37,-9.2783 25.107,-9.5411 -0.1552,-0.15513 2.3528,-1.3065 5.5731,-2.5586 3.2204,-1.2521 7.2305,-2.8104 8.9114,-3.463 1.6808,-0.65259 5.0543,-2.0521 7.4966,-3.11 5.1937,-2.2498 8.8251,-2.7515 9.1753,-1.2677 0.2367,1.0026 -1.0084,5.255 -4.6074,15.735 -2.3819,6.936 -11.418,32.66 -12.316,35.06 -0.4235,1.1322 -2.1113,6.4447 -3.7508,11.806 -6.0638,19.828 -11.295,35.374 -13.418,39.875 -2.7184,5.764 -1.0542,6.8886 -26.62,-17.987 -6.1106,-5.9456 -18.423,-18.294 -27.361,-27.44 z m 18.501,13.672 c 1.0017,0.82044 2.4015,-0.41884 9.9264,-8.7879 16.372,-18.209 48.306,-52.97 52.311,-56.941 3.3549,-3.3272 2.6831,-4.1558 -1.3022,-1.6059 -2.9445,1.884 -15.12,6.826 -35.09,14.243 -11.132,4.1346 -24.891,9.6095 -41.478,16.504 l -14.485,6.0211 8.6304,9.3375 c 7.3775,7.9819 17.383,17.866 21.488,21.229 z m 17.968,17.572 c 1.6882,-10.963 1.4881,-15.323 -0.5297,-11.541 -0.4736,0.88759 -0.4401,0.12557 0.074,-1.6934 0.5145,-1.819 0.9848,-5.9625 1.0452,-9.2078 0.06,-3.2454 0.3433,-5.6671 0.6287,-5.3817 0.2854,0.28541 0.9941,-0.9742 1.575,-2.7991 1.3633,-4.2834 2.6786,-4.318 1.7139,-0.0451 -1.5374,6.8102 -2.4174,16.25 -1.5342,16.458 0.5054,0.11931 1.3049,-2.703 1.7766,-6.2718 1.3526,-10.233 3.1386,-19.116 3.8433,-19.116 0.3552,0 0.2653,2.3231 -0.1998,5.1625 -0.465,2.8394 -0.8804,6.7186 -0.923,8.6206 -0.043,1.9019 -0.4932,6.5425 -1.0013,10.312 -0.5081,3.7699 -1.0071,9.0996 -1.1088,11.844 -0.1193,3.2214 -0.7093,5.1132 -1.6648,5.3387 -2.1122,0.49862 -2.1789,1.9067 -0.1848,3.9008 2.11,2.11 2.6539,1.6057 3.0182,-2.7989 1.1131,-13.459 1.4311,-15.163 2.9556,-15.842 1.2424,-0.55331 1.3121,0.71012 0.2976,5.3989 -2.0701,9.5687 -1.5369,17.977 1.3215,20.835 1.3105,1.3105 2.7609,2.3827 3.2231,2.3827 0.4622,-1e-5 1.5101,-2.2932 2.3286,-5.096 1.878,-6.4306 1.9602,-8.695 0.2058,-5.6713 -1.232,2.1236 -1.2846,2.1148 -1.0322,-0.17207 0.1463,-1.3252 0.4916,-2.8891 0.7673,-3.4753 0.2758,-0.58623 0.13,-1.0829 -0.324,-1.1037 -0.4539,-0.0208 -1.1961,1.9052 -1.6493,4.2801 -0.4532,2.3749 -1.3018,4.2052 -1.8858,4.0673 -0.5839,-0.13786 -0.9362,-0.78231 -0.7829,-1.4321 0.1534,-0.6498 -0.1419,-1.2808 -0.6562,-1.4022 -1.0823,-0.25547 -1.1713,-5.5584 -0.225,-13.401 0.6803,-5.6384 1.4086,-7.2964 2.6569,-6.0481 0.8221,0.82213 3.4916,-14.917 3.0985,-18.269 -0.2435,-2.0764 -0.2919,-2.0543 -0.7097,0.32467 -0.2466,1.4042 -0.8732,5.6826 -1.3924,9.5074 -1.0644,7.8424 -1.08,7.8818 -2.5364,6.4255 -0.5833,-0.58336 -0.6557,-1.4656 -0.1608,-1.9605 0.4949,-0.49489 1.0976,-3.6432 1.3394,-6.9962 0.2417,-3.353 0.7572,-6.414 1.1454,-6.8022 0.3882,-0.3882 0.1909,-0.82737 -0.4383,-0.97592 -1.4246,-0.33631 -0.8251,-0.9827 1.5893,-1.7138 1.3827,-0.41866 1.9393,-1.7137 2.2039,-5.1278 0.2941,-3.7951 0.2213,-4.0135 -0.4304,-1.2915 -0.6915,2.8881 -2.8406,6.5339 -3.4766,5.8979 -0.127,-0.12702 0.1169,-2.4073 0.5421,-5.0673 0.4251,-2.66 0.3701,-4.8363 -0.1223,-4.8363 -0.4924,0 -0.5241,-0.37123 -0.07,-0.82495 0.4537,-0.45373 0.5167,-1.1332 0.14,-1.5099 -0.3767,-0.3767 -0.9427,-0.14722 -1.2578,0.50998 -0.3151,0.65719 -4.5372,5.4182 -9.3825,10.58 -4.8453,5.1618 -8.7021,9.8964 -8.5706,10.521 0.1314,0.62485 -0.2305,3.2122 -0.8043,5.7496 -1.4456,6.3924 -1.4435,13.406 0,14.854 0.803,0.80307 1.2455,-1.9769 1.3107,-8.2352 0.097,-9.2878 0.7554,-13.251 2.4912,-14.986 1.3586,-1.3587 1.2686,5.7678 -0.1277,10.105 -1.0537,3.2728 -0.9034,5.9017 0.4547,7.9532 0.9871,1.4911 0.7038,3.5388 -0.6812,4.9239 -2.0583,2.0582 -2.0265,3.0742 0.154,4.9213 1.064,0.90139 1.8396,0.98959 1.9577,0.22265 z m 9.105,-21.689 c 0.4378,-4.4325 0.8736,-10.301 0.9685,-13.041 0.095,-2.7401 0.4874,-5.6887 0.8721,-6.5526 1.4432,-3.2405 1.9292,-0.0389 1.3024,8.5783 -0.356,4.8942 -0.5147,9.2434 -0.3527,9.6647 0.1621,0.42132 -0.01,1.0689 -0.3784,1.4391 -0.3702,0.37018 -0.95,2.0027 -1.2885,3.6278 -0.4646,2.2302 -0.2444,2.8716 0.8979,2.6159 0.8324,-0.18632 1.1952,-0.0206 0.8063,0.36834 -0.3889,0.38891 -1.3633,0.8537 -2.1654,1.0329 -1.0191,0.22766 -1.2185,-2.1007 -0.6622,-7.7333 z m -19.778,6.743 c 0.042,-2.669 -0.063,-4.8416 -0.2317,-4.8279 -0.1691,0.0137 -1.1841,1.2165 -2.2556,2.673 -1.7124,2.3277 -1.6843,2.9118 0.2317,4.8279 l 2.1798,2.1798 0.076,-4.8528 z m 2.8287,6.3431 c 0.1486,-0.62927 -0.048,-1.4623 -0.437,-1.8512 -0.3889,-0.38891 -0.8286,-0.19225 -0.9772,0.43701 -0.1485,0.62927 0.048,1.4623 0.437,1.8512 0.389,0.38891 0.8287,0.19226 0.9772,-0.43701 z m 0.6855,-10.539 c 1.2168,-3.8231 0.8786,-5.8747 -0.7072,-4.289 -0.6412,0.6412 -1.0471,2.479 -0.902,4.0841 0.3497,3.8696 0.4392,3.881 1.6092,0.20489 z m 20.875,19.414 c 0.6458,-3.8397 0.3276,-7.3105 -0.4189,-4.5693 -0.5192,1.9064 -0.8485,7.5018 -0.4641,7.8861 0.1531,0.15315 0.5505,-1.3394 0.883,-3.3168 z m 8.3993,-6.1392 c 1.6064,-4.8107 2.7867,-9.094 2.623,-9.5186 -0.1636,-0.42455 0.2529,-0.90184 0.9257,-1.0607 0.6941,-0.16387 0.6872,-0.41527 -0.016,-0.58127 -0.7179,-0.16945 -0.6844,-1.0386 0.08,-2.0659 0.7253,-0.97538 0.9976,-2.4069 0.6052,-3.1812 -0.584,-1.1523 -0.7473,-1.0554 -0.8997,0.53387 -0.1024,1.0679 -0.5876,1.9417 -1.0782,1.9417 -0.4906,0 -1.1633,2.0152 -1.4948,4.4783 -0.3316,2.4631 -1.0403,4.4763 -1.5751,4.4739 -1.075,-0.005 -0.8654,-3.3387 1.056,-16.794 1.6771,-11.744 3.0332,-16.418 5.067,-17.46 1.389,-0.71205 1.3616,-0.79884 -0.1734,-0.54828 -1.1561,0.18871 -1.5156,-0.0183 -0.982,-0.56564 1.2473,-1.2794 2.6657,-9.8283 1.7196,-10.364 -0.4483,-0.25386 -0.3378,-0.93885 0.2456,-1.5222 0.5833,-0.58336 0.5833,-1.538 0,-2.1213 -0.7852,-0.78518 -1.8267,-0.26566 -4.0101,2.0004 -1.6222,1.6836 -2.3885,2.8224 -1.703,2.5309 0.6856,-0.2916 1.3949,0.0626 1.5763,0.78701 0.1813,0.72445 0.4314,0.34209 0.5557,-0.84967 0.1924,-1.8457 0.3767,-2.0161 1.2429,-1.1499 0.5593,0.55934 -0.22,5.9453 -1.7319,11.969 -2.5709,10.243 -4.7633,22.867 -5.297,30.5 -0.127,1.8175 -0.4113,3.5083 -0.6318,3.7574 -0.72,0.81369 -1.3472,6.9914 -0.7686,7.5701 0.3103,0.31028 0.86,-0.41283 1.2215,-1.6069 1.1104,-3.6674 1.8036,-1.2926 0.8817,3.0204 -1.3996,6.5476 -0.5629,5.1845 2.5617,-4.1733 z m -8.4581,-3.1548 c 0.3352,-1.6093 0.4682,-3.0673 0.2955,-3.24 -0.3465,-0.34654 -0.9607,1.6013 -1.2713,4.032 -0.3567,2.7918 0.3485,2.2194 0.9758,-0.79203 z m 4.584,-13.471 c -0.01,-1.3915 -0.1677,-1.3915 -0.7917,0 -0.4318,0.9629 -0.4289,1.7507 0.01,1.7507 0.4354,0 0.7887,-0.78782 0.7851,-1.7507 z m 1.1261,-6.9006 c 0.8488,-5.0467 0.1993,-5.289 -0.8364,-0.31191 -0.4593,2.2074 -0.5991,4.0134 -0.3106,4.0134 0.2885,10e-6 0.8046,-1.6657 1.147,-3.7015 z m 5.5896,1.9116 c 0.3698,-0.83044 0.3691,-1.5099 0,-1.5099 -0.3707,0 -0.8037,0.54912 -0.9621,1.2202 -0.4309,1.8254 0.1958,2.0138 0.9636,0.28964 z m 3.1377,4.8595 c 0.1267,-0.12666 0.1523,-1.8512 0.057,-3.8323 l -0.1735,-3.602 -0.5649,3.2798 c -0.4797,2.7854 -0.1231,4.9593 0.6817,4.1546 z m -7.3248,-16.668 c 0.7491,-2.3094 1.2076,-4.8492 1.0189,-5.6439 -0.2112,-0.88975 -0.5786,-0.34303 -0.956,1.4229 -0.3372,1.5773 -0.9501,3.9627 -1.362,5.3008 -0.412,1.3382 -0.5946,2.5874 -0.4059,2.7761 0.1886,0.18867 0.9559,-1.5465 1.705,-3.8559 z m 7.3259,4.7122 -0.09,-3.9363 -0.7413,3.9363 c -0.4077,2.165 -0.3672,3.9363 0.09,3.9363 0.4572,0 0.7908,-1.7713 0.7413,-3.9363 z m 2.822,1.8042 c 0.5292,-1.4153 0.6162,-2.9205 0.1933,-3.345 -0.423,-0.42441 0.1694,-1.8524 1.3164,-3.1731 1.1469,-1.3207 1.9847,-2.8682 1.8616,-3.4388 -0.123,-0.57061 0.2488,-1.9381 0.8262,-3.0389 1.0101,-1.9255 0.3708,-5.1424 -1.022,-5.1424 -0.3701,0 -0.673,0.95459 -0.673,2.1213 0,1.16671 0.2362,2.1213 0.5249,2.1213 0.2888,10e-6 -0.1982,1.8015 -1.0822,4.0032 l -1.6072,4.0032 0.1455,-4.2732 c 0.1683,-4.9438 -1.8579,-6.3717 -2.7774,-1.9573 -0.3283,1.5758 -0.2185,3.2433 0.2438,3.7056 0.4624,0.46235 0.8064,3.0338 0.7645,5.7142 -0.091,5.8046 0.03,6.0576 1.2856,2.6998 z m -10.697,-14.993 c 1.4375,-0.64025 2.3443,-5.3812 1.2403,-6.4852 -0.2902,-0.29014 -1.6097,0.61773 -2.9323,2.0175 -1.8489,1.9568 -2.1051,2.8446 -1.1084,3.8413 0.7129,0.71294 1.9731,0.99482 2.8004,0.62639 z m 10.749,-3.0109 c -0.01,-1.3915 -0.1677,-1.3915 -0.7917,0 -0.4318,0.9629 -0.4289,1.7507 0.01,1.7507 0.4354,0 0.7887,-0.78783 0.7851,-1.7507 z m 2.5269,-2.2814 c 0.3195,-0.71753 0.49,-1.3956 0.3787,-1.5068 -0.1112,-0.11124 -0.7893,0.0592 -1.5068,0.37877 -0.7175,0.31956 -0.888,0.99761 -0.3788,1.5068 0.5092,0.50921 1.1873,0.33876 1.5069,-0.37878 z m -2.4541,-6.1748 c 0.072,-4.6424 0.853,-6.8536 1.5014,-4.2537 0.2717,1.0894 0.4015,0.9943 0.564,-0.41316 0.1162,-1.0054 2.2422,-3.7679 4.7246,-6.1388 3.2254,-3.0806 4.3432,-4.6924 3.9171,-5.6482 -0.4837,-1.085 -1.4166,-0.35223 -4.9421,3.882 -2.3902,2.8707 -5.2975,6.1769 -6.4607,7.3472 -1.6778,1.6876 -1.8772,2.8376 -0.9653,5.5609 0.6323,1.8882 1.2486,3.6182 1.3695,3.8444 0.1209,0.22613 0.2521,-1.6551 0.2915,-4.1806 z m 8.0916,0.33657 c 1.0368,-6.1649 0.1649,-8.1923 -0.9588,-2.2295 -0.5946,3.1548 -0.7548,5.7359 -0.356,5.7359 0.3988,0 0.9905,-1.5779 1.3148,-3.5064 z m 6.6134,-16.323 c 0.5744,-0.98122 0.7521,-2.0763 0.3949,-2.4336 -0.3589,-0.35882 -0.9437,0.32213 -1.3069,1.5216 -0.3615,1.1941 -0.5392,2.2892 -0.3949,2.4336 0.1444,0.14436 0.7325,-0.54034 1.3069,-1.5216 z m 1.2264,-5.474 c -0.3043,-0.60874 0.034,-1.3684 0.7521,-1.6882 0.718,-0.31978 1.1753,-1.1329 1.0162,-1.807 -0.1841,-0.77986 -0.7734,-0.52106 -1.6202,0.71161 -0.732,1.0654 -2.0812,2.7779 -2.9983,3.8054 l -1.6674,1.8682 2.5356,-0.89154 c 1.9329,-0.67968 2.4039,-1.1546 1.9821,-1.9984 z"
         id="path3185" />
      <path
         inkscape:connector-curvature="0"
         d="m 379.15,529.4 c 9.7039,9.9306 15.979,16.902 15.576,17.304 -0.3707,0.37069 -5.7331,2.7924 -11.916,5.3816 -6.1834,2.5892 -14.826,6.2157 -19.205,8.0589 -4.3794,1.8432 -11.698,4.7068 -16.264,6.3637 -21.169,7.682 -25.37,9.2783 -25.107,9.5411 0.1551,0.15513 -2.3528,1.3065 -5.5732,2.5586 -3.2203,1.2521 -7.2304,2.8104 -8.9113,3.463 -1.6809,0.65259 -5.0543,2.0521 -7.4966,3.11 -5.1937,2.2498 -8.8251,2.7515 -9.1754,1.2677 -0.2367,-1.0026 1.0085,-5.255 4.6075,-15.735 2.3819,-6.936 11.418,-32.66 12.316,-35.06 0.4234,-1.1322 2.1113,-6.4447 3.7508,-11.806 6.0637,-19.828 11.295,-35.374 13.418,-39.875 2.7184,-5.764 1.0541,-6.8886 26.62,17.987 6.1105,5.9456 18.423,18.294 27.36,27.44 z m -18.501,-13.672 c -1.0017,-0.82044 -2.4016,0.41884 -9.9264,8.7879 -16.372,18.209 -48.306,52.97 -52.311,56.941 -3.3549,3.3272 -2.683,4.1558 1.3022,1.6059 2.9446,-1.884 15.12,-6.826 35.09,-14.243 11.132,-4.1346 24.892,-9.6095 41.478,-16.504 l 14.485,-6.0211 -8.6304,-9.3375 c -7.3774,-7.9819 -17.383,-17.866 -21.488,-21.229 z m -17.97,-17.57 c -1.6882,10.963 -1.4881,15.323 0.5297,11.541 0.4735,-0.88759 0.4401,-0.12557 -0.074,1.6934 -0.5145,1.819 -0.9849,5.9625 -1.0452,9.2078 -0.06,3.2454 -0.3433,5.6671 -0.6287,5.3817 -0.2854,-0.28541 -0.9942,0.9742 -1.575,2.7991 -1.3634,4.2834 -2.6786,4.318 -1.714,0.0451 1.5375,-6.8102 2.4175,-16.25 1.5343,-16.458 -0.5055,-0.11931 -1.3049,2.703 -1.7767,6.2718 -1.3525,10.233 -3.1385,19.116 -3.8433,19.116 -0.3551,0 -0.2652,-2.3231 0.1998,-5.1625 0.4651,-2.8394 0.8805,-6.7186 0.9231,-8.6206 0.043,-1.9019 0.4932,-6.5425 1.0013,-10.312 0.5081,-3.7699 1.007,-9.0996 1.1087,-11.844 0.1194,-3.2214 0.7093,-5.1132 1.6648,-5.3387 2.1122,-0.49862 2.179,-1.9067 0.1849,-3.9008 -2.11,-2.11 -2.6539,-1.6057 -3.0182,2.7989 -1.1132,13.459 -1.4311,15.163 -2.9557,15.842 -1.2423,0.55331 -1.312,-0.71012 -0.2976,-5.3989 2.0702,-9.5687 1.5369,-17.977 -1.3214,-20.835 -1.3105,-1.3105 -2.7609,-2.3827 -3.2231,-2.3827 -0.4623,10e-6 -1.5101,2.2932 -2.3287,5.096 -1.8779,6.4306 -1.9601,8.695 -0.2058,5.6713 1.2321,-2.1236 1.2846,-2.1148 1.0322,0.17207 -0.1463,1.3252 -0.4915,2.8891 -0.7673,3.4753 -0.2757,0.58623 -0.1299,1.0829 0.324,1.1037 0.454,0.0208 1.1962,-1.9052 1.6494,-4.2801 0.4531,-2.3749 1.3017,-4.2052 1.8857,-4.0673 0.584,0.13786 0.9363,0.78231 0.7829,1.4321 -0.1534,0.6498 0.1419,1.2808 0.6563,1.4022 1.0822,0.25547 1.1712,5.5584 0.225,13.401 -0.6803,5.6384 -1.4087,7.2964 -2.6569,6.0481 -0.8222,-0.82213 -3.4916,14.917 -3.0985,18.269 0.2435,2.0764 0.2919,2.0543 0.7097,-0.32467 0.2466,-1.4042 0.8731,-5.6826 1.3923,-9.5074 1.0645,-7.8424 1.0801,-7.8818 2.5364,-6.4255 0.5834,0.58336 0.6558,1.4656 0.1609,1.9605 -0.4949,0.49489 -1.0976,3.6432 -1.3394,6.9962 -0.2418,3.353 -0.7572,6.414 -1.1454,6.8022 -0.3882,0.3882 -0.191,0.82737 0.4383,0.97592 1.4246,0.33631 0.8251,0.9827 -1.5893,1.7138 -1.3827,0.41866 -1.9394,1.7137 -2.2039,5.1278 -0.2941,3.7951 -0.2213,4.0135 0.4304,1.2915 0.6915,-2.8881 2.8405,-6.5339 3.4765,-5.8979 0.127,0.12702 -0.1169,2.4073 -0.542,5.0673 -0.4251,2.66 -0.3701,4.8363 0.1223,4.8363 0.4924,0 0.524,0.37123 0.07,0.82495 -0.4537,0.45373 -0.5168,1.1332 -0.1401,1.5099 0.3767,0.3767 0.9428,0.14722 1.2578,-0.50998 0.3151,-0.65719 4.5373,-5.4182 9.3826,-10.58 4.8453,-5.1618 8.7021,-9.8964 8.5706,-10.521 -0.1315,-0.62485 0.2305,-3.2122 0.8043,-5.7496 1.4456,-6.3924 1.4435,-13.406 0,-14.854 -0.8031,-0.80307 -1.2455,1.9769 -1.3107,8.2352 -0.097,9.2878 -0.7555,13.251 -2.4912,14.986 -1.3587,1.3587 -1.2686,-5.7678 0.1277,-10.105 1.0537,-3.2728 0.9034,-5.9017 -0.4547,-7.9532 -0.9871,-1.4911 -0.7038,-3.5388 0.6812,-4.9239 2.0582,-2.0582 2.0264,-3.0742 -0.154,-4.9213 -1.064,-0.90139 -1.8397,-0.98959 -1.9578,-0.22265 z m -9.105,21.689 c -0.4378,4.4325 -0.8736,10.301 -0.9686,13.041 -0.095,2.7401 -0.4873,5.6887 -0.872,6.5526 -1.4432,3.2405 -1.9293,0.0389 -1.3024,-8.5783 0.356,-4.8942 0.5147,-9.2434 0.3526,-9.6647 -0.162,-0.42132 0.01,-1.0689 0.3785,-1.4391 0.3702,-0.37018 0.95,-2.0027 1.2885,-3.6278 0.4645,-2.2302 0.2444,-2.8716 -0.8979,-2.6159 -0.8324,0.18632 -1.1952,0.0206 -0.8063,-0.36834 0.3889,-0.38891 1.3633,-0.8537 2.1653,-1.0329 1.0192,-0.22766 1.2186,2.1007 0.6623,7.7333 z m 19.778,-6.743 c -0.042,2.669 0.063,4.8416 0.2316,4.8279 0.1692,-0.0137 1.1842,-1.2165 2.2556,-2.673 1.7124,-2.3277 1.6844,-2.9118 -0.2317,-4.8279 l -2.1797,-2.1798 -0.076,4.8528 z m -2.8288,-6.3431 c -0.1485,0.62927 0.048,1.4623 0.437,1.8512 0.3889,0.38891 0.8287,0.19225 0.9772,-0.43701 0.1486,-0.62927 -0.048,-1.4623 -0.437,-1.8512 -0.3889,-0.38891 -0.8286,-0.19226 -0.9772,0.43701 z m -0.6854,10.539 c -1.2169,3.8231 -0.8786,5.8747 0.7071,4.289 0.6412,-0.6412 1.0472,-2.479 0.9021,-4.0841 -0.3497,-3.8696 -0.4392,-3.881 -1.6092,-0.20489 z m -20.875,-19.414 c -0.6458,3.8397 -0.3275,7.3105 0.419,4.5693 0.5192,-1.9064 0.8485,-7.5018 0.4641,-7.8861 -0.1531,-0.15315 -0.5505,1.3394 -0.8831,3.3168 z m -8.3993,6.1392 c -1.6063,4.8107 -2.7867,9.094 -2.623,9.5186 0.1637,0.42455 -0.2529,0.90184 -0.9256,1.0607 -0.6942,0.16387 -0.6873,0.41527 0.016,0.58127 0.7178,0.16945 0.6843,1.0386 -0.08,2.0659 -0.7253,0.97538 -0.9977,2.4069 -0.6052,3.1812 0.5839,1.1523 0.7473,1.0554 0.8996,-0.53387 0.1024,-1.0679 0.5877,-1.9417 1.0783,-1.9417 0.4906,0 1.1633,-2.0152 1.4948,-4.4783 0.3315,-2.4631 1.0403,-4.4763 1.575,-4.4739 1.0751,0.005 0.8655,3.3387 -1.0559,16.794 -1.6771,11.744 -3.0333,16.418 -5.067,17.46 -1.3891,0.71205 -1.3616,0.79884 0.1733,0.54828 1.1562,-0.18871 1.5156,0.0183 0.982,0.56564 -1.2473,1.2794 -2.6657,9.8283 -1.7195,10.364 0.4483,0.25386 0.3378,0.93885 -0.2456,1.5222 -0.5834,0.58336 -0.5834,1.538 0,2.1213 0.7852,0.78518 1.8267,0.26566 4.01,-2.0004 1.6222,-1.6836 2.3885,-2.8224 1.703,-2.5309 -0.6855,0.2916 -1.3948,-0.0626 -1.5762,-0.78701 -0.1814,-0.72445 -0.4315,-0.34209 -0.5557,0.84967 -0.1925,1.8457 -0.3767,2.0161 -1.2429,1.1499 -0.5594,-0.55934 0.2199,-5.9453 1.7318,-11.969 2.5709,-10.243 4.7633,-22.867 5.297,-30.5 0.1271,-1.8175 0.4114,-3.5083 0.6318,-3.7574 0.7201,-0.81369 1.3473,-6.9914 0.7686,-7.5701 -0.3103,-0.31028 -0.8599,0.41283 -1.2215,1.6069 -1.1104,3.6674 -1.8036,1.2926 -0.8816,-3.0204 1.3996,-6.5476 0.5628,-5.1845 -2.5618,4.1733 z m 8.4582,3.1548 c -0.3352,1.6093 -0.4682,3.0673 -0.2955,3.24 0.3465,0.34654 0.9606,-1.6013 1.2712,-4.032 0.3568,-2.7918 -0.3485,-2.2194 -0.9757,0.79203 z m -4.584,13.471 c 0,1.3915 0.1676,1.3915 0.7917,0 0.4318,-0.9629 0.4289,-1.7507 -0.01,-1.7507 -0.4354,0 -0.7887,0.78782 -0.7852,1.7507 z m -1.1262,6.9006 c -0.8487,5.0467 -0.1992,5.289 0.8364,0.31191 0.4593,-2.2074 0.5991,-4.0134 0.3107,-4.0134 -0.2885,-10e-6 -0.8047,1.6657 -1.1471,3.7015 z m -5.5895,-1.9116 c -0.3698,0.83044 -0.3691,1.5099 0,1.5099 0.3707,0 0.8036,-0.54912 0.9621,-1.2202 0.4309,-1.8254 -0.1958,-2.0138 -0.9637,-0.28964 z m -3.1378,-4.8595 c -0.1266,0.12666 -0.1522,1.8512 -0.057,3.8323 l 0.1735,3.602 0.5649,-3.2798 c 0.4798,-2.7854 0.1231,-4.9593 -0.6816,-4.1546 z m 7.3249,16.668 c -0.7491,2.3094 -1.2076,4.8492 -1.019,5.6439 0.2113,0.88975 0.5786,0.34303 0.9561,-1.4229 0.3371,-1.5773 0.95,-3.9627 1.362,-5.3008 0.4119,-1.3382 0.5946,-2.5874 0.4059,-2.7761 -0.1887,-0.18867 -0.9559,1.5465 -1.705,3.8559 z m -7.3259,-4.7122 0.09,3.9363 0.7413,-3.9363 c 0.4077,-2.165 0.3672,-3.9363 -0.09,-3.9363 -0.4573,0 -0.7909,1.7713 -0.7413,3.9363 z m -2.822,-1.8042 c -0.5293,1.4153 -0.6163,2.9205 -0.1933,3.345 0.423,0.42441 -0.1695,1.8524 -1.3164,3.1731 -1.147,1.3207 -1.9847,2.8682 -1.8617,3.4388 0.123,0.57061 -0.2487,1.9381 -0.8262,3.0389 -1.0101,1.9255 -0.3707,5.1424 1.022,5.1424 0.3702,0 0.6731,-0.95459 0.6731,-2.1213 0,-1.16671 -0.2363,-2.1213 -0.525,-2.1213 -0.2887,-10e-6 0.1983,-1.8015 1.0823,-4.0032 l 1.6072,-4.0032 -0.1455,4.2732 c -0.1683,4.9438 1.8579,6.3717 2.7774,1.9573 0.3282,-1.5758 0.2185,-3.2433 -0.2439,-3.7056 -0.4623,-0.46235 -0.8063,-3.0338 -0.7644,-5.7142 0.091,-5.8046 -0.03,-6.0576 -1.2856,-2.6998 z m 10.697,14.993 c -1.4376,0.64025 -2.3443,5.3812 -1.2403,6.4852 0.2901,0.29014 1.6096,-0.61773 2.9322,-2.0175 1.849,-1.9568 2.1052,-2.8446 1.1085,-3.8413 -0.713,-0.71294 -1.9731,-0.99482 -2.8004,-0.62639 z m -10.749,3.0109 c 0.01,1.3915 0.1676,1.3915 0.7917,0 0.4318,-0.9629 0.4288,-1.7507 -0.01,-1.7507 -0.4355,0 -0.7888,0.78783 -0.7852,1.7507 z m -2.5269,2.2814 c -0.3196,0.71753 -0.49,1.3956 -0.3788,1.5068 0.1112,0.11124 0.7893,-0.0592 1.5069,-0.37877 0.7175,-0.31956 0.888,-0.99761 0.3787,-1.5068 -0.5092,-0.50921 -1.1873,-0.33876 -1.5068,0.37878 z m 2.454,6.1748 c -0.072,4.6424 -0.853,6.8536 -1.5013,4.2537 -0.2717,-1.0894 -0.4015,-0.9943 -0.5641,0.41316 -0.1161,1.0054 -2.2422,3.7679 -4.7245,6.1388 -3.2254,3.0806 -4.3433,4.6924 -3.9171,5.6482 0.4837,1.085 1.4166,0.35223 4.9421,-3.882 2.3902,-2.8707 5.2975,-6.1769 6.4607,-7.3472 1.6777,-1.6876 1.8772,-2.8376 0.9653,-5.5609 -0.6324,-1.8882 -1.2486,-3.6182 -1.3695,-3.8444 -0.1209,-0.22613 -0.2521,1.6551 -0.2916,4.1806 z m -8.0915,-0.33657 c -1.0369,6.1649 -0.1649,8.1923 0.9588,2.2295 0.5946,-3.1548 0.7547,-5.7359 0.3559,-5.7359 -0.3988,0 -0.9904,1.5779 -1.3147,3.5064 z m -6.6134,16.323 c -0.5744,0.98122 -0.7521,2.0763 -0.3949,2.4336 0.3588,0.35882 0.9437,-0.32213 1.3069,-1.5216 0.3615,-1.1941 0.5392,-2.2892 0.3948,-2.4336 -0.1443,-0.14436 -0.7324,0.54034 -1.3068,1.5216 z m -1.2265,5.474 c 0.3044,0.60874 -0.034,1.3684 -0.7521,1.6882 -0.718,0.31978 -1.1753,1.1329 -1.0161,1.807 0.1841,0.77986 0.7733,0.52106 1.6202,-0.71161 0.732,-1.0654 2.0812,-2.7779 2.9983,-3.8054 l 1.6673,-1.8682 -2.5355,0.89154 c -1.9329,0.67968 -2.404,1.1546 -1.9821,1.9984 z"
         id="path3189" />
      <path
         inkscape:connector-curvature="0"
         d="m 533.83,496.51 c 9.9305,-9.7039 16.902,-15.979 17.304,-15.576 0.3707,0.37069 2.7924,5.7331 5.3816,11.916 2.5892,6.1834 6.2157,14.826 8.0589,19.205 1.8432,4.3793 4.7068,11.698 6.3636,16.264 7.682,21.169 9.2783,25.37 9.5411,25.107 0.1552,-0.15513 1.3065,2.3528 2.5586,5.5732 1.2521,3.2204 2.8104,7.2305 3.463,8.9114 0.6526,1.6809 2.0521,5.0543 3.11,7.4966 2.2498,5.1937 2.7516,8.8251 1.2678,9.1754 -1.0027,0.23669 -5.255,-1.0085 -15.735,-4.6075 -6.9359,-2.3819 -32.66,-11.418 -35.06,-12.316 -1.1322,-0.42345 -6.4447,-2.1113 -11.806,-3.7508 -19.828,-6.0638 -35.374,-11.295 -39.875,-13.418 -5.7641,-2.7184 -6.8886,-1.0541 17.987,-26.62 5.9456,-6.1105 18.294,-18.423 27.44,-27.361 z m -13.672,18.501 c -0.8204,1.0017 0.4188,2.4016 8.7879,9.9264 18.209,16.372 52.97,48.306 56.941,52.311 3.3272,3.3549 4.1558,2.683 1.6059,-1.3022 -1.884,-2.9445 -6.826,-15.12 -14.243,-35.09 -4.1346,-11.132 -9.6095,-24.891 -16.504,-41.478 l -6.0212,-14.485 -9.3375,8.6304 c -7.9819,7.3774 -17.866,17.383 -21.229,21.488 z m -17.572,17.968 c 10.963,1.6882 15.323,1.4881 11.541,-0.52969 -0.8876,-0.47358 -0.1256,-0.44011 1.6934,0.0744 1.819,0.5145 5.9625,0.98484 9.2078,1.0452 3.2454,0.0604 5.6672,0.34327 5.3818,0.62868 -0.2854,0.28542 0.9742,0.99414 2.799,1.575 4.2834,1.3634 4.318,2.6786 0.045,1.714 -6.8101,-1.5375 -16.25,-2.4174 -16.458,-1.5342 -0.1193,0.50542 2.703,1.3049 6.2718,1.7766 10.233,1.3526 19.116,3.1386 19.116,3.8433 0,0.35516 -2.3231,0.26524 -5.1625,-0.19981 -2.8394,-0.46505 -6.7187,-0.88042 -8.6206,-0.92304 -1.9019,-0.0426 -6.5425,-0.49322 -10.312,-1.0013 -3.7699,-0.5081 -9.0995,-1.007 -11.844,-1.1087 -3.2213,-0.11938 -5.1131,-0.70931 -5.3387,-1.6648 -0.4986,-2.1122 -1.9067,-2.1789 -3.9008,-0.18482 -2.11,2.11 -1.6057,2.6539 2.7989,3.0182 13.459,1.1132 15.163,1.4311 15.842,2.9557 0.5533,1.2424 -0.7101,1.312 -5.3989,0.29762 -9.5687,-2.0702 -17.977,-1.5369 -20.835,1.3214 -1.3105,1.3105 -2.3828,2.7609 -2.3828,3.2231 10e-5,0.46222 2.2932,1.5101 5.096,2.3286 6.4306,1.878 8.6951,1.9602 5.6714,0.20582 -2.1236,-1.2321 -2.1148,-1.2846 0.172,-1.0322 1.3253,0.14627 2.8892,0.49156 3.4754,0.7673 0.5862,0.27575 1.0829,0.12994 1.1037,-0.32402 0.021,-0.45396 -1.9052,-1.1962 -4.2801,-1.6493 -2.3749,-0.45317 -4.2052,-1.3018 -4.0673,-1.8858 0.1378,-0.58399 0.7823,-0.93629 1.4321,-0.7829 0.6498,0.1534 1.2808,-0.14192 1.4022,-0.65627 0.2555,-1.0822 5.5584,-1.1712 13.401,-0.22498 5.6384,0.68029 7.2964,1.4086 6.0482,2.6569 -0.8222,0.82212 14.917,3.4916 18.269,3.0985 2.0764,-0.24352 2.0543,-0.29193 -0.3247,-0.70972 -1.4042,-0.24661 -5.6825,-0.87315 -9.5074,-1.3923 -7.8424,-1.0645 -7.8818,-1.0801 -6.4255,-2.5364 0.5834,-0.58336 1.4656,-0.65574 1.9605,-0.16085 0.4949,0.49489 3.6432,1.0976 6.9962,1.3394 3.353,0.24176 6.414,0.75719 6.8022,1.1454 0.3882,0.3882 0.8274,0.19097 0.976,-0.4383 0.3363,-1.4246 0.9827,-0.82511 1.7137,1.5893 0.4187,1.3827 1.7137,1.9393 5.1278,2.2039 3.7951,0.2941 4.0135,0.2213 1.2914,-0.43045 -2.8881,-0.69146 -6.5339,-2.8405 -5.8979,-3.4765 0.127,-0.12702 2.4073,0.11689 5.0673,0.54203 2.66,0.42513 4.8363,0.3701 4.8363,-0.1223 0,-0.49238 0.3713,-0.52402 0.825,-0.0703 0.4537,0.45373 1.1332,0.51675 1.5099,0.14005 0.3767,-0.3767 0.1472,-0.94271 -0.51,-1.2578 -0.6572,-0.31508 -5.4182,-4.5372 -10.58,-9.3825 -5.1618,-4.8453 -9.8964,-8.7021 -10.521,-8.5706 -0.6249,0.13146 -3.2122,-0.23046 -5.7497,-0.80429 -6.3924,-1.4456 -13.406,-1.4435 -14.854,0.004 -0.803,0.80307 1.977,1.2455 8.2353,1.3107 9.2878,0.0967 13.251,0.75547 14.986,2.4912 1.3587,1.3587 -5.7678,1.2686 -10.104,-0.12765 -3.2728,-1.0537 -5.9017,-0.90345 -7.9532,0.45467 -1.4911,0.98711 -3.5389,0.7038 -4.9239,-0.68122 -2.0582,-2.0582 -3.0742,-2.0264 -4.9213,0.154 -0.9014,1.064 -0.9896,1.8397 -0.2226,1.9578 z m 21.689,9.105 c 4.4325,0.43778 10.301,0.87362 13.041,0.96853 2.7401,0.0949 5.6888,0.48735 6.5526,0.87206 3.2405,1.4432 0.039,1.9293 -8.5783,1.3024 -4.8942,-0.35602 -9.2433,-0.51473 -9.6646,-0.35268 -0.4213,0.16204 -1.0689,-0.008 -1.4391,-0.37844 -0.3702,-0.37017 -2.0027,-0.95 -3.6278,-1.2885 -2.2302,-0.46455 -2.8716,-0.24438 -2.6159,0.89793 0.1863,0.83236 0.021,1.1952 -0.3684,0.80627 -0.3889,-0.3889 -0.8537,-1.3633 -1.0328,-2.1653 -0.2277,-1.0192 2.1006,-1.2186 7.7333,-0.66226 z m -6.743,-19.778 c 2.669,0.0417 4.8416,-0.0626 4.8279,-0.23168 -0.014,-0.16911 -1.2165,-1.1841 -2.673,-2.2556 -2.3277,-1.7124 -2.9118,-1.6844 -4.8279,0.23167 l -2.1797,2.1798 4.8527,0.0758 z m -6.3431,2.8288 c 0.6293,0.14855 1.4623,-0.0481 1.8512,-0.43701 0.389,-0.38891 0.1923,-0.82865 -0.437,-0.9772 -0.6292,-0.14855 -1.4623,0.0481 -1.8512,0.43701 -0.3889,0.38891 -0.1923,0.82865 0.437,0.9772 z m 10.539,0.68546 c 3.8231,1.2168 5.8747,0.87856 4.289,-0.70716 -0.6412,-0.6412 -2.4791,-1.0471 -4.0841,-0.90209 -3.8696,0.34971 -3.881,0.4392 -0.2049,1.6092 z m -19.414,20.875 c 3.8397,0.64577 7.3105,0.32752 4.5693,-0.41897 -1.9064,-0.51917 -7.5018,-0.84847 -7.8861,-0.46412 -0.1532,0.15315 1.3394,0.55053 3.3168,0.88309 z m 6.1391,8.3993 c 4.8107,1.6063 9.0941,2.7867 9.5186,2.623 0.4246,-0.16366 0.9019,0.25287 1.0607,0.92561 0.1639,0.69416 0.4153,0.68727 0.5813,-0.0159 0.1694,-0.71783 1.0385,-0.68432 2.0659,0.0797 0.9754,0.72532 2.4069,0.99768 3.1812,0.60525 1.1523,-0.58398 1.0554,-0.7473 -0.5338,-0.89969 -1.068,-0.1024 -1.9417,-0.58761 -1.9417,-1.0782 0,-0.49063 -2.0153,-1.1633 -4.4784,-1.4948 -2.4631,-0.33153 -4.4763,-1.0403 -4.4738,-1.575 0.01,-1.0751 3.3387,-0.86544 16.794,1.0559 11.744,1.6771 16.418,3.0333 17.46,5.067 0.7121,1.3891 0.7989,1.3616 0.5483,-0.17333 -0.1887,-1.1562 0.018,-1.5156 0.5656,-0.982 1.2794,1.2473 9.8283,2.6657 10.364,1.7196 0.2538,-0.44831 0.9388,-0.33781 1.5222,0.24555 0.5834,0.58336 1.5379,0.58336 2.1213,0 0.7852,-0.78519 0.2657,-1.8267 -2.0004,-4.01 -1.6835,-1.6222 -2.8224,-2.3885 -2.5308,-1.703 0.2916,0.68553 -0.063,1.3948 -0.787,1.5762 -0.7245,0.18139 -0.3421,0.43147 0.8496,0.55573 1.8457,0.19244 2.0162,0.37667 1.1499,1.2429 -0.5593,0.55934 -5.9453,-0.21999 -11.969,-1.7319 -10.243,-2.5709 -22.867,-4.7633 -30.5,-5.297 -1.8175,-0.12707 -3.5083,-0.41138 -3.7574,-0.6318 -0.8137,-0.72007 -6.9914,-1.3473 -7.5701,-0.76861 -0.3103,0.31029 0.4128,0.85997 1.6069,1.2215 3.6674,1.1104 1.2926,1.8036 -3.0204,0.88163 -6.5476,-1.3996 -5.1845,-0.56285 4.1732,2.5618 z m 3.1549,-8.4582 c 1.6093,0.33522 3.0673,0.46821 3.24,0.29553 0.3465,-0.34654 -1.6013,-0.96066 -4.032,-1.2713 -2.7918,-0.35674 -2.2194,0.34848 0.792,0.97573 z m 13.471,4.584 c 1.3915,-0.005 1.3915,-0.16764 0,-0.79168 -0.9629,-0.43182 -1.7507,-0.42888 -1.7507,0.007 0,0.43543 0.7878,0.78873 1.7507,0.78514 z m 6.9006,1.1262 c 5.0467,0.84876 5.2889,0.19923 0.3119,-0.83641 -2.2074,-0.45932 -4.0135,-0.5991 -4.0135,-0.31063 0,0.28848 1.6657,0.80464 3.7016,1.147 z m -1.9116,5.5895 c 0.8304,0.36984 1.5099,0.36913 1.5099,-0.002 0,-0.37071 -0.5492,-0.80364 -1.2203,-0.96207 -1.8254,-0.43092 -2.0137,0.19577 -0.2896,0.96364 z m -4.8595,3.1378 c 0.1267,0.12666 1.8512,0.15222 3.8323,0.0568 l 3.602,-0.17351 -3.2797,-0.56489 c -2.7854,-0.47974 -4.9593,-0.12309 -4.1546,0.68162 z m 16.668,-7.3249 c 2.3094,0.7491 4.8492,1.2076 5.6439,1.019 0.8897,-0.21123 0.343,-0.57857 -1.4229,-0.95605 -1.5773,-0.33715 -3.9627,-0.95005 -5.3008,-1.362 -1.3382,-0.41193 -2.5874,-0.59459 -2.7761,-0.40592 -0.1886,0.18867 1.5465,0.95593 3.8559,1.705 z m -4.7122,7.3259 3.9363,-0.0901 -3.9363,-0.7413 c -2.165,-0.40772 -3.9363,-0.36719 -3.9363,0.0901 0,0.45726 1.7713,0.79085 3.9363,0.74131 z m -1.8042,2.822 c 1.4153,0.52927 2.9205,0.61627 3.345,0.19334 0.4244,-0.423 1.8524,0.16943 3.1732,1.3164 1.3207,1.147 2.8682,1.9847 3.4388,1.8617 0.5706,-0.12302 1.9381,0.24876 3.0389,0.8262 1.9255,1.0101 5.1424,0.37074 5.1424,-1.022 0,-0.37018 -0.9546,-0.67306 -2.1213,-0.67306 -1.1668,0 -2.1214,0.23624 -2.1214,0.52497 0,0.28874 -1.8014,-0.19828 -4.0032,-1.0822 l -4.0032,-1.6072 4.2731,0.1455 c 4.9438,0.16834 6.3718,-1.8579 1.9574,-2.7774 -1.5758,-0.32822 -3.2433,-0.21848 -3.7057,0.24386 -0.4623,0.46235 -3.0337,0.80637 -5.7142,0.76449 -5.8047,-0.0907 -6.0577,0.0298 -2.6998,1.2856 z m 14.992,-10.697 c 0.6403,1.4376 5.3812,2.3443 6.4852,1.2403 0.2901,-0.29014 -0.6177,-1.6096 -2.0175,-2.9322 -1.9568,-1.8489 -2.8446,-2.1051 -3.8413,-1.1085 -0.7129,0.71295 -0.9948,1.9731 -0.6264,2.8004 z m 3.0109,10.749 c 1.3915,-0.005 1.3915,-0.16764 0,-0.79167 -0.9629,-0.43183 -1.7507,-0.42889 -1.7507,0.007 0,0.43542 0.7878,0.78872 1.7507,0.78513 z m 2.2814,2.5269 c 0.7175,0.31956 1.3956,0.49001 1.5069,0.37877 0.1112,-0.11123 -0.059,-0.78931 -0.3788,-1.5068 -0.3196,-0.71754 -0.9976,-0.88801 -1.5069,-0.37878 -0.5092,0.50921 -0.3387,1.1873 0.3788,1.5068 z m 6.1748,-2.454 c 4.6423,0.0725 6.8536,0.853 4.2537,1.5014 -1.0894,0.27168 -0.9943,0.40145 0.4131,0.56403 1.0055,0.11615 3.7679,2.2422 6.1388,4.7246 3.0806,3.2254 4.6924,4.3432 5.6482,3.9171 1.085,-0.48374 0.3522,-1.4166 -3.882,-4.9421 -2.8707,-2.3902 -6.177,-5.2975 -7.3472,-6.4607 -1.6876,-1.6777 -2.8376,-1.8772 -5.5609,-0.96526 -1.8882,0.63232 -3.6182,1.2486 -3.8443,1.3695 -0.2262,0.12091 1.6551,0.25208 4.1806,0.29154 z m -0.3366,8.0916 c 6.1649,1.0368 8.1923,0.16489 2.2295,-0.95885 -3.1547,-0.59455 -5.7359,-0.75471 -5.7359,-0.35593 0,0.39879 1.5779,0.99045 3.5064,1.3148 z m 16.323,6.6134 c 0.9812,0.57441 2.0763,0.75211 2.4336,0.39487 0.3588,-0.35883 -0.3221,-0.94371 -1.5216,-1.3069 -1.1941,-0.36155 -2.2892,-0.53923 -2.4335,-0.39488 -0.1444,0.14436 0.5403,0.73245 1.5215,1.3069 z m 5.474,1.2264 c 0.6087,-0.30438 1.3684,0.034 1.6882,0.75208 0.3198,0.71801 1.1329,1.1753 1.807,1.0162 0.7799,-0.1841 0.5211,-0.77335 -0.7116,-1.6202 -1.0655,-0.73199 -2.7779,-2.0812 -3.8054,-2.9983 l -1.8681,-1.6674 0.8915,2.5355 c 0.6797,1.933 1.1546,2.404 1.9984,1.9821 z"
         id="path3187" />
      <path
         style="fill:#ffffff;fill-rule:evenodd;stroke:#000000;stroke-width:4.46570015"
         inkscape:connector-curvature="0"
         d="m 586.78,434.98 a 147.77,147.77 0 0 1 -295.53,0 147.77,147.77 0 1 1 295.53,0 z"
         id="path3030" />
      <path
         style="fill:#ffffff;stroke:#ffffff;stroke-width:1.10350001px"
         inkscape:connector-curvature="0"
         d="m 395.25,323.01 87.293,0 -39.775,-207.02 -3.8719,6.8577 -43.646,200.16"
         id="path3071" />
      <path
         inkscape:connector-curvature="0"
         d="m 394.13,323.89 c -0.2933,-0.93089 -0.028,-4.4157 0.5901,-7.744 1.4763,-7.9518 11.466,-53.914 11.906,-54.782 0.3209,-0.63235 3.1889,-14.04 16.651,-77.844 13.094,-62.059 13.556,-63.857 17.589,-68.47 2.7339,-3.1274 3.0106,-2.6516 5.5671,9.5749 1.0611,5.0748 2.656,12.592 3.5442,16.704 0.8882,4.1124 2.8773,14.927 4.4203,24.033 1.5429,9.1059 4.3626,24.968 6.266,35.249 1.9034,10.281 5.7839,31.43 8.6235,46.998 2.8395,15.568 5.8122,31.43 6.6058,35.249 0.7937,3.8186 2.3935,12.531 3.5552,19.36 1.1617,6.8294 2.7015,14.451 3.4218,16.937 0.7203,2.4859 1.0916,4.9494 0.8252,5.4743 -0.2741,0.54006 -19.706,0.95441 -44.758,0.95441 -39.595,0 -44.33,-0.17886 -44.807,-1.6925 z m 45.15,-2.7937 c 1.34,-1.6318 1.5475,-198.46 0.2092,-198.46 -0.8878,0 -1.0773,0.74023 -5.195,20.295 -6.8586,32.57 -12.055,56.85 -18.975,88.656 -14.318,65.814 -18.902,88.007 -18.464,89.397 0.6087,1.9316 40.843,2.0387 42.424,0.113 z m 6.3157,0.18011 c 0,-1.2787 -2.4742,-2.6504 -3.1958,-1.7717 -0.7682,0.93538 0.5348,2.8734 1.9318,2.8734 0.6952,0 1.264,-0.49575 1.264,-1.1017 z m 14.912,-1.5056 c 0,-0.84654 -0.3947,-1.8362 -0.8772,-2.1993 -0.4824,-0.36309 -0.8772,0.0891 -0.8772,1.0051 0,2.9498 -4.0037,1.8456 -7.5173,-2.0732 -1.8435,-2.0562 -3.7681,-3.718 -4.2769,-3.6929 -0.5088,0.025 0.8513,1.9464 3.0223,4.2697 3.0952,3.3122 4.6575,4.2247 7.2368,4.227 2.2805,0.002 3.2895,-0.46925 3.2895,-1.5363 z m 12.689,0.53133 c 0.2814,-0.55431 -2.2961,-3.7988 -5.7277,-7.21 -3.4316,-3.4112 -8.1016,-8.1481 -10.378,-10.527 -2.2762,-2.3784 -5.3991,-4.9602 -6.9398,-5.7373 -1.5407,-0.77709 -2.8013,-1.8352 -2.8013,-2.3514 0,-0.51621 -0.5921,-0.93856 -1.3158,-0.93856 -0.7236,0 -1.3158,-0.72099 -1.3158,-1.6022 0,-0.88121 0.4087,-1.6022 0.9081,-1.6022 0.6157,0 0.6057,-0.68789 -0.031,-2.1363 -0.5164,-1.175 -1.5171,-2.1363 -2.2238,-2.1363 -1.8313,0 -1.8982,26.89 -0.072,28.736 0.9414,0.9514 1.339,0.82731 1.7742,-0.55376 0.3086,-0.97897 0.3322,-2.6576 0.053,-3.7302 -0.3797,-1.457 0.065,-2.1254 1.7581,-2.6429 1.81,-0.55316 2.0634,-0.99056 1.2582,-2.1719 -1.7488,-2.5659 0.6281,-1.6751 3.7446,1.4034 1.605,1.5854 5.1586,5.4307 7.8969,8.5451 4.4901,5.1068 5.3675,5.6625 8.9395,5.6625 2.1784,0 4.1909,-0.45354 4.4723,-1.0078 z m -12.721,-7.588 c -10.772,-9.6382 -17.245,-16.61 -16.399,-17.663 0.3707,-0.46187 2.147,0.83652 3.9473,2.8853 1.8004,2.0488 7.1396,7.265 11.865,11.592 4.7253,4.3266 8.8109,8.2989 9.0791,8.8272 1.3353,2.6309 -0.9239,1.1301 -8.492,-5.6411 z m 15.821,6.0563 c 0,-0.2218 -0.6908,-1.063 -1.5351,-1.8692 -1.3913,-1.3286 -1.4223,-1.2908 -0.3312,0.4033 1.1459,1.7792 1.8663,2.3451 1.8663,1.466 z m -3.5088,-3.6673 c 0,-1.0464 -14.246,-16.224 -16.946,-18.055 -3.9915,-2.7063 -3.2135,-1.1987 1.7277,3.3481 2.822,2.5966 7.3019,7.1411 9.9554,10.099 5.2647,5.8683 5.2631,5.8669 5.2631,4.6085 z m 0.3172,-7.1449 c -0.5276,-1.6742 -2.9487,-2.2589 -2.9487,-0.7121 0,1.305 1.0082,2.3143 2.3116,2.3143 0.6548,0 0.9266,-0.68362 0.6371,-1.6022 z m 3.7824,-2.0386 c -0.5713,-1.8129 -5.854,-6.4553 -5.854,-5.1445 0,1.5987 5.6762,8.8469 6.0038,7.6666 0.1662,-0.59844 0.099,-1.7334 -0.1498,-2.5221 z m -0.5908,-8.6428 c 0,-0.88123 -0.45,-1.6022 -1.0001,-1.6022 -0.55,0 -4.8169,-4.5663 -9.482,-10.147 -4.665,-5.581 -8.809,-10.147 -9.2088,-10.147 -0.3998,0 -2.35,-1.8025 -4.3338,-4.0055 -1.9838,-2.203 -4.5937,-4.8215 -5.7999,-5.8188 -1.7103,-1.4142 -1.8611,-1.8256 -0.6851,-1.8692 0.8293,-0.0308 6.8891,4.9909 13.466,11.159 6.577,6.1685 12.56,11.215 13.295,11.215 1.0317,0 1.2103,-0.76842 0.7831,-3.3696 -0.3044,-1.8533 -1.0149,-4.0467 -1.5789,-4.8741 -0.8747,-1.2834 -1.1408,-1.2533 -1.8111,0.20517 -0.6721,1.4624 -1.6331,0.98005 -6.6448,-3.3353 -3.2226,-2.7747 -8.7293,-7.9127 -12.237,-11.418 -5.6481,-5.6433 -6.3569,-6.7562 -6.1929,-9.7224 0.2073,-3.7474 -0.7247,-6.2914 -1.9632,-5.3593 -0.897,0.67498 -1.1314,14.269 -0.2921,16.932 0.2886,0.91552 2.3609,3.2789 4.6053,5.2519 2.2444,1.973 8.0281,8.1329 12.853,13.689 12.706,14.632 16.228,17.5 16.228,13.216 z m -11.404,-3.0389 c 0,-0.20269 -0.8882,-1.2842 -1.9737,-2.4033 l -1.9737,-2.0348 1.6711,2.4033 c 1.5703,2.2585 2.2763,2.8896 2.2763,2.0348 z m -13.158,-4.8493 c 0,-0.51992 -1.0855,-1.7909 -2.4123,-2.8244 l -2.4123,-1.8791 2.1266,2.8244 c 2.2994,3.0538 2.698,3.3315 2.698,1.8791 z m 1.688,-2.8913 c -1.1696,-1.5226 -2.9161,-3.243 -3.881,-3.8229 -0.9649,-0.57993 -0.1754,0.64781 1.7544,2.7283 4.1519,4.4761 5.0984,4.9633 2.1266,1.0946 z m 6.2067,0.85902 c 0,-1.0663 -7.0782,-9.3446 -12.398,-14.5 -3.0845,-2.9891 -4.1803,-3.5711 -4.545,-2.4138 -0.5981,1.8978 0.7077,3.887 4.662,7.102 1.6886,1.3729 4.739,4.3314 6.7787,6.5745 3.5456,3.8992 5.502,5.0502 5.502,3.237 z m -14.529,-8.8505 c -2.0446,-2.6053 -2.637,-2.9232 -2.8699,-1.5398 -0.5146,3.0561 0.607,4.8228 3.0616,4.8228 l 2.3847,0 -2.5764,-3.283 z m 25.085,-12.472 c -1.3015,-5.2757 -1.9673,-6.7198 -3.5845,-7.7737 -3.0639,-1.9967 -3.575,-1.0151 -0.8989,1.7268 2.5147,2.5766 3.6153,5.7798 1.9858,5.7798 -0.3922,0 -1.8725,-1.4965 -3.2895,-3.3255 -1.417,-1.829 -3.9892,-4.4269 -5.7161,-5.773 -1.7268,-1.3462 -5.6682,-5.3773 -8.7585,-8.9581 -5.8131,-6.7356 -7.8174,-7.9308 -7.6075,-4.5364 0.072,1.158 2.4969,3.8922 5.8666,6.6137 3.1594,2.5517 7.5207,6.4406 9.6917,8.642 4.4182,4.4799 11.526,10.493 12.439,10.522 0.3282,0.011 0.2706,-1.3024 -0.1279,-2.918 z m -13.188,-4.3943 c 0,-0.78725 -4.0634,-4.4772 -8.772,-7.9659 -0.7237,-0.5362 0.5974,1.2444 2.9358,3.957 4.102,4.7584 5.8362,5.9496 5.8362,4.009 z m 10.863,-9.4915 c -1.0598,-5.4264 -0.6942,-5.0265 -16.849,-18.434 -7.643,-6.3436 -8.9318,-6.6126 -8.9134,-1.8604 0.017,4.3588 0.215,4.6929 6.379,10.758 5.0753,4.9935 9.6724,8.2722 13.763,9.8162 2.9814,1.1252 -6.0113,-9.2385 -11.384,-13.12 -2.171,-1.5683 -4.9342,-3.97 -6.1403,-5.337 l -2.193,-2.4855 3.9473,2.0372 c 2.1711,1.1205 5.1553,2.9458 6.6315,4.0562 4.8441,3.6437 13.544,13.67 13.544,15.608 0,1.0443 0.4022,1.8987 0.8939,1.8987 0.5294,0 0.66,-1.1976 0.3202,-2.9374 z m -2.9685,-13.405 c 0,-2.4296 -1.4486,-5.0202 -2.807,-5.0202 -0.386,0 -0.7018,0.81712 -0.7018,1.8158 0,1.4123 -0.2339,1.531 -1.0526,0.53406 -0.579,-0.70496 -1.5902,-1.2818 -2.2471,-1.2818 -0.657,0 0.102,1.442 1.6867,3.2044 3.4483,3.8351 5.1218,4.0794 5.1218,0.7477 z m -0.8772,-6.5462 c 0,-0.92081 -2.7831,-3.8148 -3.6686,-3.8148 -0.5015,0 0.02,0.94535 1.1591,2.1008 2.1977,2.2293 2.5095,2.4423 2.5095,1.714 z m -15.351,-4.8829 c -1.3866,-1.7624 -2.1184,-3.2044 -1.6261,-3.2044 0.4923,0 1.1912,0.36049 1.553,0.8011 0.3619,0.4406 0.9211,0.80185 1.2427,0.80275 0.3217,9.3e-4 1.83,1.0824 3.3518,2.4033 1.5218,1.3209 3.2718,2.4017 3.8888,2.4017 0.617,0 -2.0098,-2.6343 -5.8372,-5.8541 -7.5292,-6.3338 -9.1519,-7.0139 -9.1519,-3.8355 0,2.144 2.1578,5.417 3.5714,5.417 0.448,0 1.604,0.96132 2.5689,2.1363 2.8148,3.4276 3.213,2.458 0.4386,-1.0681 z m 12.301,-10.586 c -0.625,-2.8852 -1.3607,-5.6876 -1.6348,-6.2276 -0.7176,-1.4138 -14.168,-10.958 -15.443,-10.958 -1.6836,0 -0.5328,2.626 1.3406,3.0592 3.7179,0.85961 9.371,5.9044 10.587,9.4476 0.6809,1.9846 1.848,3.8932 2.5934,4.2416 0.7454,0.34829 1.71,1.7694 2.1435,3.1579 1.3582,4.3498 1.6004,2.7566 0.4137,-2.721 z m -10.547,2.0413 c -0.2982,-0.58748 -0.9369,-1.0681 -1.4193,-1.0681 -0.4825,0 -0.6333,0.48065 -0.3351,1.0681 0.2982,0.58748 0.9369,1.0681 1.4193,1.0681 0.4825,0 0.6333,-0.48066 0.3351,-1.0681 z m -3.9298,-3.7127 c -1.5023,-2.2042 -0.6239,-2.0467 2.8121,0.50426 4.9384,3.6664 4.8274,2.3335 -0.1372,-1.6478 -4.7877,-3.8394 -7.4473,-4.14 -6.9162,-0.78155 0.281,1.7768 4.2108,4.9415 4.9773,4.0082 0.2055,-0.25026 -0.1257,-1.1876 -0.736,-2.083 z m -1.3333,-8.0369 c -0.2982,-0.58748 -1.0123,-1.0608 -1.5869,-1.0518 -0.6277,0.01 -0.5195,0.42964 0.2711,1.0518 1.6852,1.3261 1.9888,1.3261 1.3158,0 z m 3.94,-11.73 c 0,-0.5663 -1.4802,-2.2594 -3.2895,-3.7624 l -3.2894,-2.7328 -0.3026,2.3674 c -0.1764,1.3798 0.3509,2.9493 1.2641,3.7624 1.823,1.6232 5.6174,1.87 5.6174,0.36539 z m 3.2343,-4.1025 c -1.2964,-1.6477 -2.3571,-3.5703 -2.3571,-4.2726 0,-0.7022 -0.3947,-1.2767 -0.8772,-1.2767 -1.7756,0 -0.8009,3.0927 1.8217,5.7798 3.5699,3.6577 4.3692,3.5273 1.4126,-0.23055 z m 2.9061,-6.4866 c 0,-0.51553 -0.5604,-1.5037 -1.2454,-2.1959 -1.0053,-1.0159 -1.1873,-0.88671 -0.9443,0.67031 0.1656,1.0609 0.3313,2.049 0.3682,2.1959 0.1858,0.73948 1.8215,0.13756 1.8215,-0.67032 z m -9.5005,-8.0844 c 1.7341,0.67018 1.738,0.63537 0.1572,-1.3809 -0.8919,-1.1376 -2.0919,-2.9876 -2.6665,-4.111 -0.8939,-1.7473 -1.0524,-1.2577 -1.0965,3.3872 -0.055,5.8134 1.0783,8.9218 1.5455,4.238 0.2286,-2.2917 0.6151,-2.6919 2.0603,-2.1333 z m 8.0708,1.2777 c -0.3607,-0.73435 -1.4696,-2.0427 -2.464,-2.9075 -0.9945,-0.86476 -3.4857,-3.4495 -5.5362,-5.7438 -2.6249,-2.9371 -3.728,-3.6571 -3.728,-2.4332 0,0.95604 0.3131,1.7382 0.6958,1.7382 0.3828,0 3.0301,2.4033 5.8831,5.3407 5.4246,5.5851 6.2351,6.2156 5.1493,4.0055 z m -10.664,-17.891 c -0.2124,-1.7624 -0.5388,-3.2044 -0.7253,-3.2044 -0.1865,0 -0.339,1.442 -0.339,3.2044 0,1.7624 0.3263,3.2044 0.7252,3.2044 0.3989,0 0.5515,-1.442 0.3391,-3.2044 z m -0.4889,-20.582 c -0.2403,-0.72316 -0.4223,0.12714 -0.4044,1.8896 0.018,1.7624 0.2145,2.3541 0.4369,1.3148 0.2224,-1.0393 0.2077,-2.4812 -0.033,-3.2044 z"
         id="path3053" />
      <path
         style="fill:#ffffff;stroke:#000000;stroke-width:1px"
         inkscape:connector-curvature="0"
         d="m 326.12,478.64 c 0.2691,-4.2218 0.5038,-8.4459 0.7039,-12.672 1.1608,-24.504 1.1608,-49.062 0,-73.566 l -171.77,38.719 3.8718,4.5758 164.73,43.647 2.4639,-0.70397"
         id="path3900" />
      <path
         inkscape:connector-curvature="0"
         d="m 327.3,480.43 c -0.7645,0.29335 -3.6264,0.0278 -6.3597,-0.59012 -6.5303,-1.4763 -44.276,-11.466 -44.989,-11.906 -0.5193,-0.32095 -11.53,-3.1889 -63.928,-16.651 -50.965,-13.094 -52.442,-13.556 -56.23,-17.589 -2.5684,-2.7339 -2.1776,-3.0106 7.8632,-5.5671 4.1676,-1.0611 10.341,-2.656 13.718,-3.5442 3.3772,-0.88822 12.259,-2.8774 19.737,-4.4203 7.478,-1.5429 20.504,-4.3626 28.947,-6.266 8.443,-1.9034 25.811,-5.784 38.596,-8.6235 12.785,-2.8396 25.811,-5.8122 28.947,-6.6059 3.136,-0.79367 10.29,-2.3935 15.899,-3.5552 5.6085,-1.1617 11.868,-2.7015 13.909,-3.4218 2.0415,-0.72029 4.0645,-1.0916 4.4956,-0.82521 0.4435,0.2741 0.7838,19.706 0.7838,44.758 0,39.595 -0.1469,44.33 -1.3899,44.807 z m -2.2943,-45.15 c -1.3401,-1.3401 -162.98,-1.5476 -162.98,-0.20925 0,0.8878 0.6079,1.0773 16.667,5.195 26.748,6.8586 46.688,12.055 72.807,18.975 54.048,14.318 72.274,18.902 73.416,18.464 1.5863,-0.6087 1.6743,-40.843 0.093,-42.424 z m 0.1479,-6.3158 c -1.0501,0 -2.1766,2.4742 -1.455,3.1958 0.7682,0.76818 2.3597,-0.53478 2.3597,-1.9318 0,-0.69522 -0.4071,-1.264 -0.9047,-1.264 z m -1.2365,-14.912 c -0.6952,0 -1.508,0.39473 -1.8061,0.87719 -0.2982,0.48246 0.073,0.87719 0.8254,0.87719 2.4225,0 1.5157,4.0037 -1.7026,7.5173 -1.6886,1.8435 -3.0534,3.7681 -3.0328,4.2769 0.02,0.50879 1.5985,-0.85124 3.5064,-3.0223 2.7201,-3.0952 3.4695,-4.6575 3.4714,-7.2368 0,-2.2804 -0.3854,-3.2895 -1.2617,-3.2895 z m 0.4364,-12.689 c -0.4552,-0.28134 -3.1197,2.2961 -5.9211,5.7277 -2.8013,3.4316 -6.6915,8.1016 -8.6447,10.378 -1.9533,2.2762 -4.0735,5.3991 -4.7117,6.9398 -0.6382,1.5407 -1.5072,2.8013 -1.9311,2.8013 -0.4239,0 -0.7708,0.59211 -0.7708,1.3158 0,0.72369 -0.5921,1.3158 -1.3158,1.3158 -0.7237,0 -1.3158,-0.40862 -1.3158,-0.90805 0,-0.61566 -0.5649,-0.60572 -1.7543,0.0309 -0.9649,0.5164 -1.7544,1.5171 -1.7544,2.2238 0,1.8312 22.083,1.8982 23.599,0.0716 0.7813,-0.94144 0.6794,-1.3391 -0.4548,-1.7743 -0.804,-0.30851 -2.1825,-0.33218 -3.0634,-0.0526 -1.1965,0.37978 -1.7454,-0.0648 -2.1704,-1.7581 -0.4542,-1.81 -0.8134,-2.0634 -1.7836,-1.2582 -2.1072,1.7488 -1.3756,-0.62808 1.1525,-3.7446 1.302,-1.605 4.4599,-5.1586 7.0176,-7.8969 4.1938,-4.4901 4.6502,-5.3675 4.6502,-8.9395 0,-2.1784 -0.3724,-4.1909 -0.8276,-4.4722 z m -6.2316,12.721 c -7.9152,10.772 -13.64,17.245 -14.506,16.399 -0.3792,-0.37069 0.687,-2.147 2.3696,-3.9474 1.6825,-1.8004 5.9663,-7.1395 9.5195,-11.865 3.5531,-4.7253 6.8153,-8.8109 7.2492,-9.0791 2.1606,-1.3353 0.9281,0.9239 -4.6327,8.492 z m 4.9737,-15.821 c -0.1822,0 -0.873,0.69079 -1.5351,1.5351 -1.0911,1.3913 -1.0601,1.4223 0.3312,0.33119 1.4612,-1.1459 1.9258,-1.8663 1.2039,-1.8663 z m -3.0117,3.5088 c -0.8594,0 -13.324,14.246 -14.828,16.946 -2.2225,3.9915 -0.9844,3.2136 2.7496,-1.7277 2.1324,-2.8219 5.8645,-7.3018 8.2935,-9.9553 4.8193,-5.2648 4.8181,-5.2632 3.7847,-5.2632 z m -5.8677,-0.31722 c -1.3749,0.5276 -1.855,2.9488 -0.5848,2.9488 1.0717,0 1.9006,-1.0082 1.9006,-2.3116 0,-0.65478 -0.5614,-0.92663 -1.3158,-0.63714 z m -1.6741,-3.7823 c -1.4888,0.57131 -5.3013,5.8539 -4.2248,5.8539 1.3129,0 7.2653,-5.6762 6.296,-6.0038 -0.4914,-0.16612 -1.4235,-0.0987 -2.0712,0.14988 z m -7.0978,0.59076 c -0.7237,0 -1.3158,0.45003 -1.3158,1.0001 0,0.55004 -3.75,4.8169 -8.3333,9.482 -4.5834,4.6651 -8.3334,8.8091 -8.3334,9.2089 0,0.39981 -1.4802,2.35 -3.2894,4.3338 -1.8092,1.9838 -3.9596,4.5937 -4.7786,5.7998 -1.1614,1.7104 -1.4992,1.8612 -1.5351,0.68514 -0.025,-0.82931 4.0988,-6.8891 9.1646,-13.466 5.0657,-6.5771 9.2105,-12.56 9.2105,-13.295 0,-1.0317 -0.6311,-1.2103 -2.7673,-0.78302 -1.522,0.30439 -3.3233,1.0149 -4.0028,1.5788 -1.054,0.87472 -1.0292,1.1408 0.1685,1.8111 1.201,0.6721 0.8048,1.6331 -2.7391,6.6448 -2.2787,3.2225 -6.4982,8.7293 -9.3766,12.237 -4.6345,5.6481 -5.5484,6.357 -7.9844,6.1929 -3.0775,-0.20727 -5.1667,0.72467 -4.4012,1.9632 0.5543,0.89692 11.718,1.1314 13.905,0.29201 0.7518,-0.28852 2.6927,-2.3609 4.313,-4.6053 1.6203,-2.2444 6.679,-8.0281 11.242,-12.853 12.016,-12.706 14.372,-16.228 10.853,-16.228 z m -2.4956,11.404 c -0.1665,0 -1.0546,0.88816 -1.9737,1.9737 l -1.671,1.9737 1.9736,-1.671 c 1.8548,-1.5704 2.3731,-2.2763 1.6711,-2.2763 z m -3.9825,13.158 c -0.4269,0 -1.4707,1.0855 -2.3194,2.4123 l -1.5432,2.4123 2.3195,-2.1266 c 2.5079,-2.2993 2.7359,-2.698 1.5431,-2.698 z m -2.3744,-1.688 c -1.2504,1.1696 -2.6632,2.9161 -3.1395,3.881 -0.4762,0.96491 0.532,0.17544 2.2406,-1.7544 3.676,-4.1519 4.0761,-5.0984 0.8989,-2.1266 z m 0.7055,-6.2068 c -0.8757,0 -7.6741,7.0782 -11.908,12.398 -2.4548,3.0844 -2.9327,4.1803 -1.9823,4.545 1.5585,0.59806 3.1922,-0.70776 5.8325,-4.6621 1.1275,-1.6886 3.5571,-4.739 5.3992,-6.7786 3.2021,-3.5457 4.1474,-5.502 2.6583,-5.502 z m -7.2684,14.529 c -2.1395,2.0446 -2.4006,2.637 -1.2645,2.8699 2.5098,0.51454 3.9606,-0.607 3.9606,-3.0616 l 0,-2.3846 -2.6961,2.5764 z m -10.242,-25.085 c -4.3326,1.3014 -5.5186,1.9673 -6.384,3.5844 -1.6398,3.064 -0.8336,3.575 1.4181,0.89897 2.116,-2.5147 4.7466,-3.6153 4.7466,-1.9858 0,0.39219 -1.2289,1.8725 -2.731,3.2895 -1.5021,1.417 -3.6355,3.9893 -4.741,5.7161 -1.1055,1.7268 -4.416,5.6682 -7.3567,8.7585 -5.5316,5.8131 -6.5131,7.8174 -3.7255,7.6074 0.951,-0.0717 3.1964,-2.4969 5.4314,-5.8665 2.0955,-3.1594 5.2893,-7.5207 7.0971,-9.6918 3.6791,-4.4182 8.6169,-11.526 8.6413,-12.439 0.01,-0.32816 -1.0695,-0.27059 -2.3963,0.12794 z m -3.6088,13.188 c -0.6465,0 -3.6768,4.0633 -6.5419,8.7719 -0.4403,0.72368 1.022,-0.5974 3.2496,-2.9358 3.9078,-4.102 4.8861,-5.8362 3.2923,-5.8362 z m -7.7947,-10.863 c -4.4564,1.0598 -4.1279,0.69426 -15.139,16.849 -5.2095,7.6431 -5.4304,8.9318 -1.5278,8.9134 3.5796,-0.0168 3.854,-0.21498 8.8345,-6.379 4.1008,-5.0753 6.7934,-9.6724 8.0614,-13.763 0.9241,-2.9814 -7.587,6.0112 -10.774,11.384 -1.2879,2.171 -3.2603,4.9342 -4.3829,6.1404 l -2.0412,2.193 1.673,-3.9474 c 0.9202,-2.171 2.4191,-5.1552 3.3311,-6.6315 2.9923,-4.8441 11.226,-13.544 12.818,-13.544 0.8576,0 1.5593,-0.40226 1.5593,-0.89391 0,-0.52944 -0.9835,-0.66001 -2.4123,-0.32023 z m -11.009,2.9685 c -1.9952,0 -4.1228,1.4486 -4.1228,2.807 0,0.38596 0.6711,0.70175 1.4912,0.70175 1.1599,0 1.2573,0.23392 0.4386,1.0526 -0.5789,0.57894 -1.0526,1.5901 -1.0526,2.2471 0,0.65696 1.1842,-0.10205 2.6316,-1.6867 3.1495,-3.4483 3.3502,-5.1218 0.614,-5.1218 z m -5.3759,0.87719 c -0.7562,0 -3.1329,2.7831 -3.1329,3.6686 0,0.50145 0.7764,-0.0202 1.7253,-1.1592 1.8308,-2.1976 2.0057,-2.5095 1.4076,-2.5095 z m -4.01,15.351 c -1.4474,1.3867 -2.6316,2.1184 -2.6316,1.6261 0,-0.49232 0.296,-1.1912 0.6579,-1.553 0.3618,-0.36184 0.6585,-0.92105 0.6592,-1.2427 8e-4,-0.32164 0.8889,-1.8299 1.9737,-3.3518 1.0848,-1.5218 1.9723,-3.2718 1.9723,-3.8888 0,-0.61698 -2.1634,2.0098 -4.8075,5.8372 -5.2016,7.5292 -5.7601,9.1519 -3.1499,9.1519 1.7608,0 4.4487,-2.1579 4.4487,-3.5714 0,-0.44799 0.7894,-1.604 1.7543,-2.5689 2.8149,-2.8148 2.0186,-3.2129 -0.8771,-0.4386 z m -8.694,-12.301 c -2.3694,0.62503 -4.6708,1.3607 -5.1143,1.6348 -1.1611,0.71759 -8.9988,14.168 -8.9988,15.443 0,1.6836 2.1566,0.53283 2.5123,-1.3406 0.706,-3.7179 4.8489,-9.3709 7.7587,-10.587 1.6298,-0.68096 3.1973,-1.848 3.4833,-2.5934 0.2861,-0.74541 1.4531,-1.71 2.5934,-2.1436 3.5723,-1.3582 2.2639,-1.6004 -2.2346,-0.41368 z m 1.6764,10.547 c -0.4824,0.29817 -0.8772,0.93686 -0.8772,1.4193 0,0.48246 0.3948,0.63324 0.8772,0.33506 0.4825,-0.29817 0.8772,-0.93687 0.8772,-1.4193 0,-0.48246 -0.3947,-0.63324 -0.8772,-0.33506 z m -3.049,3.9298 c -1.8101,1.5023 -1.6808,0.62392 0.4142,-2.8121 3.0109,-4.9384 1.9163,-4.8274 -1.3533,0.13722 -3.1531,4.7877 -3.3999,7.4473 -0.6418,6.9162 1.4592,-0.28101 4.0581,-4.2108 3.2916,-4.9772 -0.2055,-0.20553 -0.9753,0.12564 -1.7107,0.73592 z m -6.6001,1.3334 c -0.4825,0.29818 -0.8712,1.0123 -0.8638,1.5869 0.01,0.62773 0.3529,0.51954 0.8638,-0.27107 1.0891,-1.6852 1.0891,-1.9889 0,-1.3158 z m -9.6175,-3.9474 c -0.4651,0 -1.8555,1.4803 -3.0898,3.2895 l -2.2443,3.2895 1.9442,0.30261 c 1.1332,0.17638 2.4221,-0.35096 3.0898,-1.2642 1.333,-1.823 1.5357,-5.6174 0.3001,-5.6174 z m -3.3691,-3.2343 c -1.3532,1.2964 -2.9321,2.3571 -3.5088,2.3571 -0.5766,0 -1.0485,0.39474 -1.0485,0.8772 0,1.7756 2.5399,0.80087 4.7466,-1.8217 3.0039,-3.5699 2.8968,-4.3692 -0.1893,-1.4126 z m -5.3271,-2.9061 c -0.4233,0 -1.2348,0.56042 -1.8033,1.2454 -0.8343,1.0053 -0.7282,1.1873 0.5505,0.94431 0.8712,-0.16558 1.6827,-0.33125 1.8033,-0.36817 0.6073,-0.18585 0.113,-1.8215 -0.5505,-1.8215 z m -6.6391,9.5005 c 0.5504,-1.7341 0.5218,-1.738 -1.1341,-0.15723 -0.9342,0.89193 -2.4535,2.0919 -3.376,2.6666 -1.435,0.89388 -1.0329,1.0524 2.7816,1.0965 4.7742,0.0553 7.3269,-1.0784 3.4804,-1.5456 -1.882,-0.22859 -2.2106,-0.61503 -1.7519,-2.0603 z m 1.0493,-8.0708 c -0.6031,0.36078 -1.6776,1.4696 -2.3877,2.464 -0.7102,0.99445 -2.8329,3.4857 -4.717,5.5362 -2.4121,2.6249 -3.0034,3.7281 -1.9983,3.7281 0.7852,0 1.4275,-0.31314 1.4275,-0.69586 0,-0.38272 1.9737,-3.0301 4.386,-5.8831 4.5867,-5.4246 5.1045,-6.2351 3.2895,-5.1493 z m -14.693,10.664 c -1.4474,0.21243 -2.6316,0.5388 -2.6316,0.72527 0,0.18648 1.1842,0.33904 2.6316,0.33904 1.4474,0 2.6316,-0.32637 2.6316,-0.72527 0,-0.3989 -1.1842,-0.55147 -2.6316,-0.33904 z m -16.903,0.48892 c -0.5938,0.24029 0.1045,0.42226 1.5518,0.40438 1.4474,-0.0179 1.9333,-0.21447 1.0798,-0.43688 -0.8535,-0.2224 -2.0377,-0.20778 -2.6316,0.0326 z"
         id="path3086" />
      <path
         style="fill:#ffffff;stroke:#000000;stroke-width:1px"
         inkscape:connector-curvature="0"
         d="m 482.78,548.86 c -4.2218,-0.26913 -8.4459,-0.5038 -12.672,-0.70397 -24.504,-1.1607 -49.062,-1.1607 -73.566,0 l 38.719,171.77 4.5759,-3.8719 43.646,-164.73 -0.704,-2.4639"
         id="path3916" />
      <path
         inkscape:connector-curvature="0"
         d="m 484.57,547.68 c 0.2934,0.76448 0.028,3.6263 -0.5901,6.3596 -1.4763,6.5303 -11.466,44.276 -11.906,44.989 -0.3209,0.51931 -3.1889,11.53 -16.652,63.928 -13.094,50.965 -13.556,52.442 -17.589,56.23 -2.734,2.5684 -3.0106,2.1776 -5.5671,-7.8632 -1.0611,-4.1676 -2.656,-10.341 -3.5442,-13.718 -0.8882,-3.3772 -2.8774,-12.259 -4.4203,-19.737 -1.5429,-7.4781 -4.3627,-20.504 -6.266,-28.947 -1.9034,-8.443 -5.784,-25.811 -8.6235,-38.596 -2.8396,-12.785 -5.8122,-25.811 -6.6059,-28.947 -0.7937,-3.136 -2.3935,-10.291 -3.5552,-15.899 -1.1616,-5.6085 -2.7014,-11.868 -3.4217,-13.909 -0.7203,-2.0415 -1.0917,-4.0646 -0.8253,-4.4957 0.2741,-0.44351 19.706,-0.78379 44.758,-0.78379 39.595,0 44.33,0.14688 44.807,1.39 z m -45.15,2.2943 c -1.3401,1.3401 -1.5476,162.98 -0.2092,162.98 0.8878,0 1.0772,-0.6079 5.195,-16.667 6.8586,-26.748 12.055,-46.687 18.975,-72.807 14.318,-54.048 18.902,-72.274 18.464,-73.416 -0.6087,-1.5863 -40.843,-1.6742 -42.424,-0.0928 z m -6.3158,-0.14791 c 0,1.0501 2.4742,2.1766 3.1959,1.455 0.7681,-0.76817 -0.5348,-2.3597 -1.9319,-2.3597 -0.6952,0 -1.264,0.40712 -1.264,0.90472 z m -14.912,1.2365 c 0,0.69521 0.3948,1.508 0.8772,1.8062 0.4825,0.29818 0.8772,-0.0732 0.8772,-0.82542 0,-2.4225 4.0038,-1.5157 7.5173,1.7026 1.8435,1.6886 3.7682,3.0533 4.2769,3.0328 0.5088,-0.0205 -0.8512,-1.5984 -3.0223,-3.5064 -3.0951,-2.7201 -4.6575,-3.4695 -7.2368,-3.4714 -2.2804,-0.002 -3.2895,0.38537 -3.2895,1.2616 z m -12.689,-0.43635 c -0.2813,0.45522 2.2962,3.1197 5.7277,5.9211 3.4316,2.8014 8.1016,6.6915 10.378,8.6447 2.2762,1.9532 5.3991,4.0735 6.9398,4.7117 1.5407,0.63817 2.8012,1.5072 2.8012,1.9311 0,0.42393 0.5921,0.77078 1.3158,0.77078 0.7237,0 1.3158,0.5921 1.3158,1.3158 0,0.72368 -0.4086,1.3158 -0.908,1.3158 -0.6157,0 -0.6058,0.56492 0.031,1.7544 0.5164,0.96491 1.5171,1.7544 2.2238,1.7544 1.8312,0 1.8982,-22.083 0.072,-23.599 -0.9414,-0.78132 -1.3391,-0.67941 -1.7743,0.45477 -0.3085,0.80396 -0.3322,2.1825 -0.053,3.0634 0.3798,1.1966 -0.065,1.7454 -1.7581,2.1704 -1.8099,0.45427 -2.0633,0.81348 -1.2582,1.7836 1.7489,2.1072 -0.6281,1.3757 -3.7446,-1.1525 -1.605,-1.302 -5.1586,-4.4599 -7.8969,-7.0175 -4.4901,-4.1939 -5.3675,-4.6503 -8.9394,-4.6503 -2.1784,0 -4.191,0.37246 -4.4723,0.82767 z m 12.721,6.2316 c 10.772,7.9152 17.245,13.64 16.399,14.506 -0.3707,0.3793 -2.147,-0.68698 -3.9474,-2.3695 -1.8003,-1.6825 -7.1395,-5.9663 -11.865,-9.5195 -4.7253,-3.5532 -8.8109,-6.8153 -9.079,-7.2492 -1.3353,-2.1606 0.9239,-0.92809 8.4919,4.6327 z m -15.821,-4.9737 c 0,0.18215 0.6907,0.87294 1.535,1.5351 1.3913,1.0911 1.4224,1.0601 0.3312,-0.3312 -1.1459,-1.4612 -1.8662,-1.9259 -1.8662,-1.2039 z m 3.5087,3.0117 c 0,0.85933 14.246,13.324 16.946,14.828 3.9915,2.2225 3.2136,0.98439 -1.7277,-2.7496 -2.8219,-2.1325 -7.3018,-5.8645 -9.9553,-8.2935 -5.2648,-4.8193 -5.2632,-4.8181 -5.2632,-3.7846 z m -0.3172,5.8676 c 0.5276,1.3749 2.9488,1.8551 2.9488,0.5848 0,-1.0717 -1.0082,-1.9006 -2.3116,-1.9006 -0.6548,0 -0.9267,0.56141 -0.6372,1.3158 z m -3.7823,1.6742 c 0.5713,1.4888 5.8539,5.3013 5.8539,4.2248 0,-1.3129 -5.6761,-7.2654 -6.0038,-6.2961 -0.1661,0.49146 -0.099,1.4235 0.1499,2.0712 z m 0.5908,7.0978 c 0,0.72369 0.45,1.3158 1,1.3158 0.5501,0 4.817,3.75 9.482,8.3333 4.6651,4.5833 8.8091,8.3333 9.2089,8.3333 0.3998,0 2.35,1.4803 4.3338,3.2895 1.9837,1.8092 4.5937,3.9596 5.7998,4.7786 1.7104,1.1614 1.8612,1.4992 0.6851,1.5351 -0.8293,0.0253 -6.889,-4.0987 -13.466,-9.1645 -6.5771,-5.0658 -12.56,-9.2105 -13.295,-9.2105 -1.0317,0 -1.2103,0.63106 -0.783,2.7673 0.3044,1.522 1.0149,3.3233 1.5788,4.0028 0.8748,1.054 1.1409,1.0292 1.8111,-0.16849 0.6721,-1.201 1.6331,-0.80485 6.6449,2.7391 3.2225,2.2787 8.7293,6.4982 12.237,9.3766 5.6481,4.6345 6.3569,5.5484 6.1929,7.9844 -0.2073,3.0775 0.7246,5.1667 1.9632,4.4012 0.8969,-0.55432 1.1314,-11.718 0.292,-13.905 -0.2885,-0.75186 -2.3609,-2.6927 -4.6052,-4.3131 -2.2444,-1.6203 -8.0281,-6.679 -12.853,-11.242 -12.706,-12.016 -16.228,-14.372 -16.228,-10.853 z m 11.404,2.4956 c 0,0.16646 0.8881,1.0546 1.9737,1.9737 l 1.9736,1.671 -1.671,-1.9737 c -1.5704,-1.8548 -2.2763,-2.373 -2.2763,-1.671 z m 13.158,3.9824 c 0,0.42697 1.0855,1.4707 2.4122,2.3195 l 2.4123,1.5432 -2.1266,-2.3195 c -2.2993,-2.5079 -2.6979,-2.7359 -2.6979,-1.5432 z m -1.688,2.3744 c 1.1696,1.2504 2.916,2.6632 3.8809,3.1395 0.965,0.47626 0.1755,-0.532 -1.7544,-2.2406 -4.1519,-3.676 -5.0983,-4.076 -2.1265,-0.89889 z m -6.2068,-0.70546 c 0,0.87571 7.0782,7.6741 12.398,11.908 3.0844,2.4548 4.1803,2.9327 4.545,1.9823 0.598,-1.5585 -0.7078,-3.1921 -4.6621,-5.8324 -1.6886,-1.1275 -4.739,-3.5571 -6.7786,-5.3992 -3.5457,-3.2022 -5.5021,-4.1474 -5.5021,-2.6583 z m 14.529,7.2684 c 2.0446,2.1396 2.637,2.4006 2.8699,1.2646 0.5145,-2.5098 -0.607,-3.9606 -3.0617,-3.9606 l -2.3846,0 2.5764,2.6961 z m -25.085,10.243 c 1.3014,4.3326 1.9673,5.5186 3.5844,6.384 3.064,1.6398 3.575,0.83363 0.899,-1.4181 -2.5147,-2.116 -3.6153,-4.7466 -1.9858,-4.7466 0.3922,0 1.8724,1.229 3.2894,2.731 1.4171,1.5021 3.9893,3.6355 5.7161,4.741 1.7269,1.1055 5.6682,4.416 8.7586,7.3567 5.813,5.5315 7.8174,6.5131 7.6074,3.7255 -0.072,-0.95102 -2.4969,-3.1964 -5.8665,-5.4314 -3.1594,-2.0956 -7.5207,-5.2893 -9.6918,-7.0971 -4.4182,-3.679 -11.526,-8.6169 -12.439,-8.6413 -0.3281,-0.009 -0.2706,1.0696 0.128,2.3963 z m 13.188,3.6088 c 0,0.64651 4.0633,3.6768 8.7719,6.5419 0.7237,0.44035 -0.5974,-1.022 -2.9357,-3.2496 -4.1021,-3.9078 -5.8362,-4.886 -5.8362,-3.2923 z m -10.863,7.7947 c 1.0599,4.4564 0.6943,4.1279 16.849,15.139 7.6431,5.2096 8.9318,5.4304 8.9135,1.5278 -0.017,-3.5796 -0.215,-3.8539 -6.379,-8.8345 -5.0754,-4.1008 -9.6724,-6.7934 -13.763,-8.0614 -2.9814,-0.92408 6.0112,7.587 11.384,10.774 2.171,1.288 4.9342,3.2603 6.1403,4.383 l 2.193,2.0412 -3.9474,-1.673 c -2.171,-0.92016 -5.1552,-2.4192 -6.6315,-3.3311 -4.844,-2.9923 -13.544,-11.226 -13.544,-12.818 0,-0.85759 -0.4023,-1.5592 -0.8939,-1.5592 -0.5295,0 -0.66,0.98352 -0.3203,2.4123 z m 2.9686,11.009 c 0,1.9952 1.4485,4.1228 2.807,4.1228 0.3859,0 0.7017,-0.67105 0.7017,-1.4912 0,-1.1598 0.234,-1.2573 1.0527,-0.43859 0.5789,0.57894 1.5901,1.0526 2.2471,1.0526 0.657,0 -0.1021,-1.1842 -1.6867,-2.6316 -3.4483,-3.1495 -5.1218,-3.3502 -5.1218,-0.61403 z m 0.8771,5.3759 c 0,0.7562 2.7832,3.1328 3.6687,3.1328 0.5014,0 -0.02,-0.77635 -1.1592,-1.7252 -2.1976,-1.8308 -2.5095,-2.0057 -2.5095,-1.4076 z m 15.351,4.01 c 1.3867,1.4474 2.1184,2.6316 1.6261,2.6316 -0.4923,0 -1.1911,-0.29605 -1.553,-0.65789 -0.3618,-0.36184 -0.921,-0.65851 -1.2427,-0.65925 -0.3216,-7.6e-4 -1.8299,-0.88891 -3.3517,-1.9737 -1.5219,-1.0848 -3.2718,-1.9723 -3.8888,-1.9723 -0.617,0 2.0097,2.1634 5.8371,4.8076 7.5292,5.2015 9.152,5.76 9.152,3.1498 0,-1.7607 -2.1579,-4.4486 -3.5714,-4.4486 -0.448,0 -1.6041,-0.78947 -2.569,-1.7544 -2.8148,-2.8148 -3.2129,-2.0186 -0.4386,0.87719 z m -12.301,8.6939 c 0.625,2.3694 1.3606,4.6708 1.6347,5.1143 0.7176,1.1611 14.168,8.9988 15.443,8.9988 1.6837,0 0.5329,-2.1566 -1.3406,-2.5123 -3.7179,-0.70594 -9.3709,-4.8489 -10.587,-7.7587 -0.681,-1.6298 -1.848,-3.1972 -2.5934,-3.4833 -0.7454,-0.28603 -1.71,-1.4531 -2.1436,-2.5934 -1.3581,-3.5722 -1.6003,-2.2639 -0.4136,2.2346 z m 10.547,-1.6764 c 0.2981,0.48246 0.9368,0.87719 1.4193,0.87719 0.4824,0 0.6332,-0.39473 0.335,-0.87719 -0.2981,-0.48246 -0.9368,-0.87719 -1.4193,-0.87719 -0.4825,0 -0.6332,0.39473 -0.335,0.87719 z m 3.9297,3.049 c 1.5023,1.8102 0.6239,1.6808 -2.8121,-0.41411 -4.9384,-3.011 -4.8274,-1.9164 0.1373,1.3532 4.7877,3.1531 7.4473,3.3999 6.9161,0.64184 -0.281,-1.4592 -4.2107,-4.0581 -4.9772,-3.2916 -0.2055,0.20552 0.1256,0.97532 0.7359,1.7107 z m 1.3334,6.6002 c 0.2982,0.48246 1.0123,0.87115 1.5869,0.86376 0.6277,-0.008 0.5195,-0.35283 -0.2711,-0.86376 -1.6852,-1.0891 -1.9889,-1.0891 -1.3158,0 z m -3.9474,9.6175 c 0,0.46506 1.4803,1.8555 3.2895,3.0898 l 3.2895,2.2443 0.3026,-1.9442 c 0.1764,-1.1332 -0.351,-2.4221 -1.2642,-3.0898 -1.8229,-1.333 -5.6174,-1.5357 -5.6174,-0.30007 z m -3.2342,3.3691 c 1.2964,1.3532 2.357,2.9321 2.357,3.5088 0,0.57667 0.3948,1.0485 0.8772,1.0485 1.7757,0 0.8009,-2.5398 -1.8217,-4.7466 -3.5698,-3.0039 -4.3692,-2.8967 -1.4125,0.18933 z m -2.9061,5.327 c 0,0.42338 0.5604,1.2349 1.2453,1.8033 1.0053,0.83432 1.1874,0.7282 0.9444,-0.55048 -0.1656,-0.87123 -0.3313,-1.6827 -0.3682,-1.8033 -0.1859,-0.60728 -1.8215,-0.11297 -1.8215,0.55049 z m 9.5004,6.6392 c -1.734,-0.55038 -1.738,-0.52179 -0.1572,1.134 0.8919,0.93426 2.0919,2.4535 2.6666,3.3761 0.8939,1.435 1.0524,1.0329 1.0965,-2.7816 0.055,-4.7742 -1.0784,-7.3269 -1.5456,-3.4804 -0.2286,1.882 -0.615,2.2106 -2.0603,1.752 z m -8.0708,-1.0493 c 0.3608,0.60307 1.4696,1.6775 2.4641,2.3877 0.9944,0.71017 3.4857,2.8328 5.5361,4.717 2.6249,2.412 3.7281,3.0033 3.7281,1.9982 0,-0.78514 -0.3132,-1.4275 -0.6959,-1.4275 -0.3827,0 -3.0301,-1.9737 -5.8831,-4.386 -5.4245,-4.5867 -6.2351,-5.1044 -5.1493,-3.2895 z m 10.664,14.693 c 0.2124,1.4474 0.5388,2.6316 0.7252,2.6316 0.1865,0 0.3391,-1.1842 0.3391,-2.6316 0,-1.4474 -0.3264,-2.6316 -0.7253,-2.6316 -0.3989,0 -0.5515,1.1842 -0.339,2.6316 z m 0.4889,16.903 c 0.2403,0.59388 0.4223,-0.10441 0.4044,-1.5518 -0.018,-1.4474 -0.2145,-1.9333 -0.4369,-1.0798 -0.2224,0.85348 -0.2078,2.0377 0.033,2.6316 z"
         id="path3918" />
      <path
         style="fill:#ffffff;stroke:#000000;stroke-width:1px"
         inkscape:connector-curvature="0"
         d="m 551.62,392.8 c -0.2691,4.2218 -0.5038,8.4459 -0.7039,12.672 -1.1608,24.504 -1.1608,49.062 0,73.566 l 171.77,-38.719 -3.8718,-4.5758 -164.73,-43.647 -2.464,0.70397"
         id="path3922" />
      <path
         inkscape:connector-curvature="0"
         d="m 550.44,391.01 c 0.7645,-0.29335 3.6264,-0.0278 6.3597,0.59012 6.5303,1.4763 44.276,11.466 44.989,11.906 0.5194,0.32095 11.53,3.1889 63.928,16.651 50.965,13.094 52.442,13.556 56.23,17.589 2.5684,2.7339 2.1776,3.0106 -7.8632,5.5671 -4.1676,1.0611 -10.341,2.656 -13.718,3.5442 -3.3772,0.88822 -12.259,2.8774 -19.737,4.4203 -7.478,1.5429 -20.504,4.3626 -28.947,6.266 -8.443,1.9034 -25.811,5.784 -38.596,8.6235 -12.785,2.8396 -25.811,5.8122 -28.947,6.6059 -3.136,0.79367 -10.29,2.3935 -15.899,3.5552 -5.6085,1.1617 -11.868,2.7015 -13.909,3.4218 -2.0415,0.72029 -4.0645,1.0916 -4.4956,0.82521 -0.4435,-0.2741 -0.7838,-19.706 -0.7838,-44.758 0,-39.595 0.1469,-44.33 1.3899,-44.807 z m 2.2943,45.15 c 1.3401,1.3401 162.98,1.5476 162.98,0.20925 0,-0.8878 -0.6078,-1.0773 -16.667,-5.195 -26.748,-6.8586 -46.688,-12.055 -72.807,-18.975 -54.048,-14.318 -72.274,-18.902 -73.416,-18.464 -1.5863,0.6087 -1.6743,40.843 -0.093,42.424 z m -0.1479,6.3158 c 1.0501,0 2.1766,-2.4742 1.455,-3.1958 -0.7682,-0.76818 -2.3597,0.53478 -2.3597,1.9318 0,0.69522 0.4071,1.264 0.9047,1.264 z m 1.2365,14.912 c 0.6952,0 1.508,-0.39473 1.8061,-0.87719 0.2982,-0.48246 -0.073,-0.87719 -0.8254,-0.87719 -2.4225,0 -1.5157,-4.0037 1.7026,-7.5173 1.6886,-1.8435 3.0534,-3.7681 3.0328,-4.2769 -0.021,-0.50879 -1.5984,0.85124 -3.5064,3.0223 -2.7201,3.0952 -3.4695,4.6575 -3.4714,7.2368 0,2.2804 0.3854,3.2895 1.2617,3.2895 z m -0.4364,12.689 c 0.4552,0.28134 3.1197,-2.2961 5.9211,-5.7277 2.8013,-3.4316 6.6915,-8.1016 8.6447,-10.378 1.9533,-2.2762 4.0735,-5.3991 4.7117,-6.9398 0.6382,-1.5407 1.5072,-2.8013 1.9311,-2.8013 0.4239,0 0.7708,-0.59211 0.7708,-1.3158 0,-0.72369 0.5921,-1.3158 1.3158,-1.3158 0.7236,0 1.3158,0.40862 1.3158,0.90805 0,0.61566 0.5649,0.60572 1.7543,-0.0309 0.9649,-0.5164 1.7544,-1.5171 1.7544,-2.2238 0,-1.8312 -22.083,-1.8982 -23.599,-0.0716 -0.7813,0.94144 -0.6794,1.3391 0.4548,1.7743 0.804,0.30851 2.1825,0.33218 3.0633,0.0526 1.1966,-0.37978 1.7455,0.0648 2.1705,1.7581 0.4542,1.81 0.8134,2.0634 1.7836,1.2582 2.1072,-1.7488 1.3756,0.62808 -1.1525,3.7446 -1.302,1.605 -4.4599,5.1586 -7.0176,7.8969 -4.1938,4.4901 -4.6502,5.3675 -4.6502,8.9395 0,2.1784 0.3724,4.1909 0.8276,4.4722 z m 6.2316,-12.721 c 7.9152,-10.772 13.64,-17.245 14.506,-16.399 0.3793,0.37069 -0.6869,2.147 -2.3695,3.9474 -1.6825,1.8004 -5.9663,7.1395 -9.5194,11.865 -3.5532,4.7253 -6.8154,8.8109 -7.2493,9.0791 -2.1606,1.3353 -0.9281,-0.9239 4.6327,-8.492 z m -4.9737,15.821 c 0.1822,0 0.873,-0.69079 1.5351,-1.5351 1.0911,-1.3913 1.0601,-1.4223 -0.3312,-0.33119 -1.4612,1.1459 -1.9258,1.8663 -1.2039,1.8663 z m 3.0117,-3.5088 c 0.8594,0 13.324,-14.246 14.828,-16.946 2.2225,-3.9915 0.9844,-3.2136 -2.7496,1.7277 -2.1325,2.8219 -5.8645,7.3018 -8.2935,9.9553 -4.8193,5.2648 -4.8181,5.2632 -3.7847,5.2632 z m 5.8677,0.31722 c 1.3749,-0.5276 1.855,-2.9488 0.5848,-2.9488 -1.0717,0 -1.9006,1.0082 -1.9006,2.3116 0,0.65478 0.5614,0.92663 1.3158,0.63714 z m 1.6741,3.7823 c 1.4888,-0.57131 5.3013,-5.8539 4.2248,-5.8539 -1.3129,0 -7.2653,5.6762 -6.296,6.0038 0.4914,0.16612 1.4235,0.0987 2.0712,-0.14988 z m 7.0978,-0.59076 c 0.7237,0 1.3158,-0.45003 1.3158,-1.0001 0,-0.55004 3.75,-4.8169 8.3333,-9.482 4.5834,-4.6651 8.3334,-8.8091 8.3334,-9.2089 0,-0.39981 1.4802,-2.35 3.2894,-4.3338 1.8092,-1.9838 3.9596,-4.5937 4.7786,-5.7998 1.1614,-1.7104 1.4992,-1.8612 1.5351,-0.68514 0.025,0.82931 -4.0988,6.8891 -9.1646,13.466 -5.0657,6.5771 -9.2105,12.56 -9.2105,13.295 0,1.0317 0.6311,1.2103 2.7673,0.78302 1.522,-0.30439 3.3233,-1.0149 4.0028,-1.5788 1.054,-0.87472 1.0292,-1.1408 -0.1685,-1.8111 -1.201,-0.6721 -0.8048,-1.6331 2.7391,-6.6448 2.2787,-3.2225 6.4982,-8.7293 9.3766,-12.237 4.6345,-5.6481 5.5484,-6.357 7.9844,-6.1929 3.0775,0.20727 5.1667,-0.72467 4.4012,-1.9632 -0.5543,-0.89692 -11.718,-1.1314 -13.905,-0.29201 -0.7519,0.28852 -2.6928,2.3609 -4.3131,4.6053 -1.6203,2.2444 -6.679,8.0281 -11.242,12.853 -12.016,12.706 -14.372,16.228 -10.853,16.228 z m 2.4956,-11.404 c 0.1665,0 1.0546,-0.88816 1.9737,-1.9737 l 1.671,-1.9737 -1.9736,1.671 c -1.8548,1.5704 -2.3731,2.2763 -1.6711,2.2763 z m 3.9825,-13.158 c 0.4269,0 1.4707,-1.0855 2.3194,-2.4123 l 1.5432,-2.4123 -2.3195,2.1266 c -2.5079,2.2993 -2.7359,2.698 -1.5431,2.698 z m 2.3744,1.688 c 1.2504,-1.1696 2.6632,-2.9161 3.1395,-3.881 0.4762,-0.96491 -0.532,-0.17544 -2.2406,1.7544 -3.676,4.1519 -4.0761,5.0984 -0.8989,2.1266 z m -0.7055,6.2068 c 0.8757,0 7.6742,-7.0782 11.908,-12.398 2.4548,-3.0844 2.9327,-4.1803 1.9823,-4.545 -1.5585,-0.59806 -3.1922,0.70776 -5.8325,4.6621 -1.1275,1.6886 -3.5571,4.739 -5.3992,6.7786 -3.2021,3.5457 -4.1474,5.502 -2.6583,5.502 z m 7.2684,-14.529 c 2.1396,-2.0446 2.4006,-2.637 1.2645,-2.8699 -2.5098,-0.51454 -3.9606,0.607 -3.9606,3.0616 l 0,2.3846 2.6961,-2.5764 z m 10.242,25.085 c 4.3326,-1.3014 5.5186,-1.9673 6.384,-3.5844 1.6398,-3.064 0.8336,-3.575 -1.4181,-0.89897 -2.116,2.5147 -4.7466,3.6153 -4.7466,1.9858 0,-0.39219 1.2289,-1.8725 2.731,-3.2895 1.5021,-1.417 3.6355,-3.9893 4.741,-5.7161 1.1055,-1.7268 4.416,-5.6682 7.3567,-8.7585 5.5316,-5.8131 6.5131,-7.8174 3.7255,-7.6074 -0.951,0.0717 -3.1964,2.4969 -5.4314,5.8665 -2.0955,3.1594 -5.2892,7.5207 -7.0971,9.6918 -3.6791,4.4182 -8.6169,11.526 -8.6413,12.439 -0.01,0.32816 1.0695,0.27059 2.3963,-0.12794 z m 3.6088,-13.188 c 0.6465,0 3.6768,-4.0633 6.5419,-8.7719 0.4403,-0.72368 -1.022,0.5974 -3.2496,2.9358 -3.9078,4.102 -4.8861,5.8362 -3.2923,5.8362 z m 7.7947,10.863 c 4.4564,-1.0598 4.1279,-0.69426 15.139,-16.849 5.2095,-7.6431 5.4304,-8.9318 1.5278,-8.9134 -3.5796,0.0168 -3.854,0.21498 -8.8345,6.379 -4.1008,5.0753 -6.7934,9.6724 -8.0614,13.763 -0.9241,2.9814 7.587,-6.0112 10.774,-11.384 1.2879,-2.171 3.2603,-4.9342 4.3829,-6.1404 l 2.0412,-2.193 -1.673,3.9474 c -0.9202,2.171 -2.4191,5.1552 -3.3311,6.6315 -2.9923,4.8441 -11.226,13.544 -12.818,13.544 -0.8576,0 -1.5593,0.40226 -1.5593,0.89391 0,0.52944 0.9836,0.66001 2.4123,0.32023 z m 11.009,-2.9685 c 1.9952,0 4.1228,-1.4486 4.1228,-2.807 0,-0.38596 -0.6711,-0.70175 -1.4912,-0.70175 -1.1599,0 -1.2573,-0.23392 -0.4386,-1.0526 0.5789,-0.57894 1.0526,-1.5901 1.0526,-2.2471 0,-0.65696 -1.1842,0.10205 -2.6316,1.6867 -3.1495,3.4483 -3.3502,5.1218 -0.614,5.1218 z m 5.3759,-0.87719 c 0.7562,0 3.1329,-2.7831 3.1329,-3.6686 0,-0.50145 -0.7764,0.0202 -1.7253,1.1592 -1.8308,2.1976 -2.0057,2.5095 -1.4076,2.5095 z m 4.0101,-15.351 c 1.4473,-1.3867 2.6315,-2.1184 2.6315,-1.6261 0,0.49232 -0.296,1.1912 -0.6579,1.553 -0.3618,0.36184 -0.6585,0.92105 -0.6592,1.2427 -8e-4,0.32164 -0.8889,1.8299 -1.9737,3.3518 -1.0848,1.5218 -1.9723,3.2718 -1.9723,3.8888 0,0.61698 2.1634,-2.0098 4.8075,-5.8372 5.2016,-7.5292 5.7601,-9.1519 3.1499,-9.1519 -1.7608,0 -4.4487,2.1579 -4.4487,3.5714 0,0.44799 -0.7894,1.604 -1.7543,2.5689 -2.8149,2.8148 -2.0186,3.2129 0.8771,0.4386 z m 8.6939,12.301 c 2.3694,-0.62503 4.6708,-1.3607 5.1143,-1.6348 1.1611,-0.71759 8.9988,-14.168 8.9988,-15.443 0,-1.6836 -2.1566,-0.53283 -2.5123,1.3406 -0.706,3.7179 -4.8489,9.3709 -7.7587,10.587 -1.6298,0.68096 -3.1973,1.848 -3.4833,2.5934 -0.2861,0.74541 -1.4531,1.71 -2.5934,2.1436 -3.5723,1.3582 -2.2639,1.6004 2.2346,0.41368 z m -1.6764,-10.547 c 0.4825,-0.29817 0.8772,-0.93686 0.8772,-1.4193 0,-0.48246 -0.3947,-0.63324 -0.8772,-0.33506 -0.4825,0.29817 -0.8772,0.93687 -0.8772,1.4193 0,0.48246 0.3947,0.63324 0.8772,0.33506 z m 3.049,-3.9298 c 1.8101,-1.5023 1.6808,-0.62392 -0.4142,2.8121 -3.0109,4.9384 -1.9163,4.8274 1.3533,-0.13722 3.1531,-4.7877 3.3999,-7.4473 0.6418,-6.9162 -1.4592,0.28101 -4.0581,4.2108 -3.2916,4.9772 0.2055,0.20553 0.9753,-0.12564 1.7107,-0.73592 z m 6.6001,-1.3334 c 0.4825,-0.29818 0.8712,-1.0123 0.8638,-1.5869 -0.01,-0.62773 -0.3529,-0.51954 -0.8638,0.27107 -1.0891,1.6852 -1.0891,1.9889 0,1.3158 z m 9.6175,3.9474 c 0.4651,0 1.8555,-1.4803 3.0898,-3.2895 l 2.2443,-3.2895 -1.9442,-0.30261 c -1.1332,-0.17638 -2.4221,0.35096 -3.0898,1.2642 -1.333,1.823 -1.5357,5.6174 -0.3001,5.6174 z m 3.3691,3.2343 c 1.3532,-1.2964 2.9321,-2.3571 3.5088,-2.3571 0.5766,0 1.0485,-0.39474 1.0485,-0.8772 0,-1.7756 -2.5399,-0.80087 -4.7466,1.8217 -3.0039,3.5699 -2.8968,4.3692 0.1893,1.4126 z m 5.3271,2.9061 c 0.4233,0 1.2348,-0.56042 1.8033,-1.2454 0.8343,-1.0053 0.7282,-1.1873 -0.5505,-0.94431 -0.8712,0.16558 -1.6827,0.33125 -1.8033,0.36817 -0.6073,0.18585 -0.113,1.8215 0.5505,1.8215 z m 6.6391,-9.5005 c -0.5504,1.7341 -0.5218,1.738 1.1341,0.15723 0.9342,-0.89193 2.4535,-2.0919 3.376,-2.6666 1.435,-0.89388 1.0329,-1.0524 -2.7816,-1.0965 -4.7742,-0.0553 -7.3269,1.0784 -3.4804,1.5456 1.882,0.22859 2.2106,0.61503 1.7519,2.0603 z m -1.0493,8.0708 c 0.6031,-0.36078 1.6776,-1.4696 2.3877,-2.464 0.7102,-0.99445 2.8329,-3.4857 4.717,-5.5362 2.4121,-2.6249 3.0034,-3.7281 1.9983,-3.7281 -0.7852,0 -1.4275,0.31314 -1.4275,0.69586 0,0.38272 -1.9737,3.0301 -4.386,5.8831 -4.5867,5.4246 -5.1045,6.2351 -3.2895,5.1493 z m 14.693,-10.664 c 1.4474,-0.21243 2.6316,-0.5388 2.6316,-0.72527 0,-0.18648 -1.1842,-0.33904 -2.6316,-0.33904 -1.4474,0 -2.6316,0.32637 -2.6316,0.72527 0,0.3989 1.1842,0.55147 2.6316,0.33904 z m 16.903,-0.48892 c 0.5938,-0.24029 -0.1045,-0.42226 -1.5518,-0.40438 -1.4474,0.0179 -1.9333,0.21447 -1.0798,0.43688 0.8535,0.2224 2.0377,0.20778 2.6316,-0.0326 z"
         id="path3924" />
      <path
         style="fill:#ffffff;fill-rule:evenodd;stroke:#000000;stroke-width:3.64700007"
         inkscape:connector-curvature="0"
         d="m 559.69,434.98 a 120.68,120.68 0 0 1 -241.35,0 120.68,120.68 0 1 1 241.35,0 z"
         id="path3180" />
      <g
         style="fill-rule:evenodd"
         transform="translate(844.63,-239.81)"
         id="g4031">
        <g
           style="fill:#ffffff;stroke:#000000;stroke-width:8.94460011;stroke-linecap:round;stroke-linejoin:round"
           transform="translate(4.5278e-6,0)"
           id="g4035" />
      </g>
    </g>
  </g>
  <g
     inkscape:groupmode="layer"
     id="layer3"
     inkscape:label="N E W S"
     style="display:inline"
     transform="translate(33.288528,23.654616)">
    <text
       xml:space="preserve"
       style="font-style:normal;font-weight:normal;font-size:40px;line-height:125%;font-family:sans-serif;letter-spacing:0px;word-spacing:0px;fill:#000000;fill-opacity:1;stroke:none;stroke-width:1px;stroke-linecap:butt;stroke-linejoin:miter;stroke-opacity:1"
       x="344.21671"
       y="56.810303"
       id="text4259"
       sodipodi:linespacing="125%"><tspan
         sodipodi:role="line"
         id="tspan4261"
         x="344.21671"
         y="56.810303"
         style="font-style:normal;font-variant:normal;font-weight:normal;font-stretch:normal;font-size:70px;font-family:'Blackadder ITC';-inkscape-font-specification:'Blackadder ITC'">N</tspan></text>
    <text
       xml:space="preserve"
       style="font-style:normal;font-weight:normal;font-size:40px;line-height:125%;font-family:sans-serif;letter-spacing:0px;word-spacing:0px;display:inline;fill:#000000;fill-opacity:1;stroke:none;stroke-width:1px;stroke-linecap:butt;stroke-linejoin:miter;stroke-opacity:1"
       x="4.9009247"
       y="408.8103"
       id="text4259-1"
       sodipodi:linespacing="125%"><tspan
         sodipodi:role="line"
         id="tspan4261-8"
         x="4.9009247"
         y="408.8103"
         style="font-style:normal;font-variant:normal;font-weight:normal;font-stretch:normal;font-size:70px;font-family:'Blackadder ITC';-inkscape-font-specification:'Blackadder ITC'">W</tspan></text>
    <text
       xml:space="preserve"
       style="font-style:normal;font-weight:normal;font-size:40px;line-height:125%;font-family:sans-serif;letter-spacing:0px;word-spacing:0px;display:inline;fill:#000000;fill-opacity:1;stroke:none;stroke-width:1px;stroke-linecap:butt;stroke-linejoin:miter;stroke-opacity:1"
       x="663.4953"
       y="414.91864"
       id="text4259-14"
       sodipodi:linespacing="125%"
       inkscape:transform-center-x="23.080505"
       inkscape:transform-center-y="8.7925732"><tspan
         sodipodi:role="line"
         id="tspan4261-6"
         x="663.4953"
         y="414.91864"
         style="font-style:normal;font-variant:normal;font-weight:normal;font-stretch:normal;font-size:70px;font-family:'Blackadder ITC';-inkscape-font-specification:'Blackadder ITC'">E</tspan></text>
    <text
       xml:space="preserve"
       style="font-style:normal;font-weight:normal;font-size:40px;line-height:125%;font-family:sans-serif;letter-spacing:0px;word-spacing:0px;display:inline;fill:#000000;fill-opacity:1;stroke:none;stroke-width:1px;stroke-linecap:butt;stroke-linejoin:miter;stroke-opacity:1"
       x="340.17953"
       y="730.79181"
       id="text4259-1-7"
       sodipodi:linespacing="125%"><tspan
         sodipodi:role="line"
         id="tspan4261-8-3"
         x="340.17953"
         y="730.79181"
         style="font-style:normal;font-variant:normal;font-weight:normal;font-stretch:normal;font-size:70px;font-family:'Blackadder ITC';-inkscape-font-specification:'Blackadder ITC'">S</tspan></text>
  </g>
  <g
     inkscape:groupmode="layer"
     id="layer2"
     inkscape:label="Text (Blackadder ITC)"
     style="display:inline"
     transform="translate(33.288528,23.654616)">
    <ellipse
       style="opacity:0;fill:#e8a8a5;fill-opacity:1;stroke:#e8a8a5;stroke-opacity:1"
       id="path4185"
       cx="392.40573"
       cy="321.66772"
       rx="50.557297"
       ry="73.637802" />
    <ellipse
       style="opacity:0;fill:#e8a8a5;fill-opacity:1;stroke:#e8a8a5;stroke-opacity:1"
       id="path4187"
       cx="395.15341"
       cy="349.1445"
       rx="50.007763"
       ry="97.817375" />
    <text
       xml:space="preserve"
       style="font-style:normal;font-variant:normal;font-weight:normal;font-stretch:normal;font-size:60px;line-height:125%;font-family:'Blackadder ITC';-inkscape-font-specification:'Blackadder ITC';letter-spacing:0px;word-spacing:0px;fill:#000000;fill-opacity:1;stroke:none;stroke-width:1px;stroke-linecap:butt;stroke-linejoin:miter;stroke-opacity:1"
       x="372.6947"
       y="360.9649"
       id="text4201"
       sodipodi:linespacing="125%"><tspan
         sodipodi:role="line"
         id="tspan4203"
         x="373.4447"
         y="360.9649"
         style="text-align:center;letter-spacing:1.5px;text-anchor:middle">Digital</tspan><tspan
         sodipodi:role="line"
         x="373.4447"
         y="435.9649"
         id="tspan4213"
         style="text-align:center;letter-spacing:1.5px;text-anchor:middle">Survival</tspan></text>
  </g>
  <g
     inkscape:groupmode="layer"
     id="layer5"
     inkscape:label="Nodes"
     transform="translate(33.288528,23.654616)" />
</svg>
